G04 #@! TF.FileFunction,Soldermask,Top*
%FSLAX46Y46*%
G04 Gerber Fmt 4.6, Leading zero omitted, Abs format (unit mm)*
G04 Created by KiCad (PCBNEW 4.0.6) date 12/04/17 20:40:56*
%MOMM*%
%LPD*%
G01*
G04 APERTURE LIST*
%ADD10C,0.050000*%
%ADD11R,1.900000X1.700000*%
%ADD12O,4.900000X1.924000*%
%ADD13O,1.924000X4.900000*%
%ADD14R,5.400000X10.400000*%
%ADD15C,2.900000*%
%ADD16R,2.600000X2.600000*%
%ADD17O,2.600000X2.600000*%
G04 APERTURE END LIST*
D10*
D11*
X137080000Y-96520000D03*
X139780000Y-96520000D03*
D12*
X128270000Y-66120000D03*
X128270000Y-68120000D03*
X128270000Y-70120000D03*
X128270000Y-72120000D03*
X128270000Y-74120000D03*
X128270000Y-76120000D03*
X128270000Y-78120000D03*
X128270000Y-80120000D03*
X128270000Y-82120000D03*
X128270000Y-84120000D03*
X128270000Y-86120000D03*
X128270000Y-88120000D03*
X128270000Y-90120000D03*
D13*
X132270000Y-92200000D03*
X134270000Y-92200000D03*
X136270000Y-92200000D03*
X138270000Y-92200000D03*
X140270000Y-92200000D03*
X142270000Y-92200000D03*
X144270000Y-92200000D03*
X146270000Y-92200000D03*
D12*
X150170000Y-90120000D03*
X150170000Y-88120000D03*
X150170000Y-86120000D03*
X150170000Y-84120000D03*
X150170000Y-82120000D03*
X150170000Y-80120000D03*
X150170000Y-78120000D03*
X150170000Y-76120000D03*
X150170000Y-74120000D03*
X150170000Y-72120000D03*
X150170000Y-70120000D03*
X150170000Y-68120000D03*
X150170000Y-66120000D03*
X150170000Y-64120000D03*
X150170000Y-62120000D03*
X150170000Y-60120000D03*
D14*
X134370000Y-69090000D03*
D15*
X142240000Y-52070000D03*
X134620000Y-52070000D03*
X134620000Y-57150000D03*
X142240000Y-57150000D03*
D16*
X147320000Y-96520000D03*
D17*
X149860000Y-96520000D03*
D16*
X127000000Y-96520000D03*
D17*
X129540000Y-96520000D03*
D16*
X146050000Y-53340000D03*
D17*
X146050000Y-55880000D03*
D16*
X130810000Y-53340000D03*
D17*
X130810000Y-55880000D03*
M02*
