M48
INCH,TZ
T1C0.016
T2C0.039
T3C0.047
T4C0.110
%
G90
G05
T1
X50000Y-36800
X50500Y-25000
X51600Y-27600
X52200Y-30500
X52800Y-31100
X54400Y-21200
X54500Y-29400
X55800Y-38000
X57800Y-30800
X58500Y-36800
T2
X50000Y-38000
X51000Y-38000
X51500Y-21000
X51500Y-22000
X57500Y-21000
X57500Y-22000
X58000Y-38000
X59000Y-38000
T3
X53000Y-20500
X53000Y-22500
X56000Y-20500
X56000Y-22500
T4
X52902Y-27201
T0
M30
