G04 #@! TF.FileFunction,Copper,L2,Bot,Signal*
%FSLAX46Y46*%
G04 Gerber Fmt 4.6, Leading zero omitted, Abs format (unit mm)*
G04 Created by KiCad (PCBNEW 4.0.6) date 12/04/17 20:40:56*
%MOMM*%
%LPD*%
G01*
G04 APERTURE LIST*
%ADD10C,0.050000*%
%ADD11R,2.032000X1.524000*%
%ADD12R,5.000000X10.000000*%
%ADD13C,2.500000*%
%ADD14R,2.200000X2.200000*%
%ADD15O,2.200000X2.200000*%
%ADD16C,0.600000*%
%ADD17C,0.400000*%
%ADD18C,0.254000*%
G04 APERTURE END LIST*
D10*
D11*
X136144000Y-85217000D03*
X136144000Y-81915000D03*
X136144000Y-79121000D03*
X136144000Y-75819000D03*
X144526000Y-78105000D03*
X144526000Y-81407000D03*
D12*
X134370000Y-69090000D03*
D13*
X142240000Y-52070000D03*
X134620000Y-52070000D03*
X134620000Y-57150000D03*
X142240000Y-57150000D03*
D14*
X147320000Y-96520000D03*
D15*
X149860000Y-96520000D03*
D14*
X127000000Y-96520000D03*
D15*
X129540000Y-96520000D03*
D14*
X146050000Y-53340000D03*
D15*
X146050000Y-55880000D03*
D14*
X130810000Y-53340000D03*
D15*
X130810000Y-55880000D03*
D16*
X128270000Y-63500000D03*
X138430000Y-74676000D03*
X138176000Y-53848000D03*
X141732000Y-96520000D03*
X148590000Y-93472000D03*
X131064000Y-70104000D03*
X127000000Y-93472000D03*
X134112000Y-78994000D03*
X146812000Y-78232000D03*
X132588000Y-77470000D03*
D17*
X128270000Y-63500000D02*
X133860000Y-69090000D01*
X133860000Y-69090000D02*
X134370000Y-69090000D01*
X138430000Y-74676000D02*
X134370000Y-70616000D01*
X134370000Y-70616000D02*
X134370000Y-69090000D01*
X137922000Y-53848000D02*
X134620000Y-57150000D01*
X138176000Y-53848000D02*
X137922000Y-53848000D01*
X134620000Y-57150000D02*
X134620000Y-68840000D01*
X134620000Y-68840000D02*
X134370000Y-69090000D01*
X136144000Y-75819000D02*
X136144000Y-70864000D01*
X136144000Y-70864000D02*
X134370000Y-69090000D01*
X144526000Y-81407000D02*
X142367000Y-83566000D01*
X133604000Y-88392000D02*
X141732000Y-96520000D01*
X133604000Y-84328000D02*
X133604000Y-88392000D01*
X134366000Y-83566000D02*
X133604000Y-84328000D01*
X142367000Y-83566000D02*
X134366000Y-83566000D01*
X136144000Y-85217000D02*
X140335000Y-85217000D01*
X140335000Y-85217000D02*
X148590000Y-93472000D01*
X129540000Y-93472000D02*
X127000000Y-93472000D01*
X131064000Y-70104000D02*
X131064000Y-75946000D01*
X131064000Y-75946000D02*
X131064000Y-81280000D01*
X131064000Y-81280000D02*
X131064000Y-87630000D01*
X131064000Y-87630000D02*
X131064000Y-92456000D01*
X131064000Y-92456000D02*
X130048000Y-93472000D01*
X130048000Y-93472000D02*
X129540000Y-93472000D01*
X134239000Y-79121000D02*
X136144000Y-79121000D01*
X134112000Y-78994000D02*
X134239000Y-79121000D01*
X136017000Y-79248000D02*
X136144000Y-79121000D01*
X136144000Y-79121000D02*
X136144000Y-81915000D01*
X136144000Y-79248000D02*
X136144000Y-79629000D01*
X146812000Y-78232000D02*
X144653000Y-78232000D01*
X144653000Y-78232000D02*
X144526000Y-78105000D01*
X137414000Y-77470000D02*
X138176000Y-77470000D01*
X132588000Y-77470000D02*
X137414000Y-77470000D01*
X142240000Y-53340000D02*
X142240000Y-52070000D01*
X140208000Y-55372000D02*
X142240000Y-53340000D01*
X140208000Y-75438000D02*
X140208000Y-55372000D01*
X138176000Y-77470000D02*
X140208000Y-75438000D01*
D18*
G36*
X133114412Y-51062096D02*
X132843310Y-51714982D01*
X132842693Y-52421916D01*
X133112655Y-53075274D01*
X133612096Y-53575588D01*
X134264982Y-53846690D01*
X134971916Y-53847307D01*
X135625274Y-53577345D01*
X136125588Y-53077904D01*
X136396690Y-52425018D01*
X136397307Y-51718084D01*
X136127345Y-51064726D01*
X135830139Y-50767000D01*
X141030024Y-50767000D01*
X140734412Y-51062096D01*
X140463310Y-51714982D01*
X140462693Y-52421916D01*
X140732655Y-53075274D01*
X141104299Y-53447567D01*
X139693933Y-54857933D01*
X139536340Y-55093789D01*
X139536340Y-55093790D01*
X139480999Y-55372000D01*
X139481000Y-55372005D01*
X139481000Y-75136866D01*
X137874866Y-76743000D01*
X137663318Y-76743000D01*
X137687000Y-76685827D01*
X137687000Y-76023750D01*
X137555250Y-75892000D01*
X136217000Y-75892000D01*
X136217000Y-75912000D01*
X136071000Y-75912000D01*
X136071000Y-75892000D01*
X134732750Y-75892000D01*
X134601000Y-76023750D01*
X134601000Y-76685827D01*
X134624682Y-76743000D01*
X132993703Y-76743000D01*
X132753222Y-76643144D01*
X132424221Y-76642857D01*
X132120154Y-76768495D01*
X131887312Y-77000930D01*
X131791000Y-77232876D01*
X131791000Y-74617000D01*
X134165250Y-74617000D01*
X134297000Y-74485250D01*
X134297000Y-69163000D01*
X134443000Y-69163000D01*
X134443000Y-74485250D01*
X134574750Y-74617000D01*
X134822710Y-74617000D01*
X134681231Y-74758478D01*
X134601000Y-74952173D01*
X134601000Y-75614250D01*
X134732750Y-75746000D01*
X136071000Y-75746000D01*
X136071000Y-75726000D01*
X136217000Y-75726000D01*
X136217000Y-75746000D01*
X137555250Y-75746000D01*
X137687000Y-75614250D01*
X137687000Y-74952173D01*
X137606769Y-74758478D01*
X137458521Y-74610231D01*
X137264827Y-74530000D01*
X137175291Y-74530000D01*
X137316769Y-74388521D01*
X137397000Y-74194827D01*
X137397000Y-69294750D01*
X137265250Y-69163000D01*
X134443000Y-69163000D01*
X134297000Y-69163000D01*
X131474750Y-69163000D01*
X131343000Y-69294750D01*
X131343000Y-69324388D01*
X131229222Y-69277144D01*
X130900221Y-69276857D01*
X130596154Y-69402495D01*
X130363312Y-69634930D01*
X130237144Y-69938778D01*
X130236857Y-70267779D01*
X130337000Y-70510143D01*
X130337000Y-92154866D01*
X129746866Y-92745000D01*
X127405703Y-92745000D01*
X127165222Y-92645144D01*
X126836221Y-92644857D01*
X126532154Y-92770495D01*
X126299312Y-93002930D01*
X126173144Y-93306778D01*
X126172857Y-93635779D01*
X126298495Y-93939846D01*
X126530930Y-94172688D01*
X126834778Y-94298856D01*
X127163779Y-94299143D01*
X127406143Y-94199000D01*
X130047995Y-94199000D01*
X130048000Y-94199001D01*
X130280052Y-94152842D01*
X130326211Y-94143660D01*
X130562067Y-93986067D01*
X131578067Y-92970067D01*
X131691474Y-92800340D01*
X131735660Y-92734211D01*
X131753434Y-92644857D01*
X131791001Y-92456000D01*
X131791000Y-92455995D01*
X131791000Y-77706731D01*
X131886495Y-77937846D01*
X132118930Y-78170688D01*
X132422778Y-78296856D01*
X132751779Y-78297143D01*
X132994143Y-78197000D01*
X133875269Y-78197000D01*
X133644154Y-78292495D01*
X133411312Y-78524930D01*
X133285144Y-78828778D01*
X133284857Y-79157779D01*
X133410495Y-79461846D01*
X133642930Y-79694688D01*
X133946778Y-79820856D01*
X134103225Y-79820992D01*
X134239000Y-79848000D01*
X134590676Y-79848000D01*
X134590676Y-79883000D01*
X134627423Y-80078294D01*
X134742842Y-80257660D01*
X134918951Y-80377990D01*
X135128000Y-80420324D01*
X135417000Y-80420324D01*
X135417000Y-80615676D01*
X135128000Y-80615676D01*
X134932706Y-80652423D01*
X134753340Y-80767842D01*
X134633010Y-80943951D01*
X134590676Y-81153000D01*
X134590676Y-82677000D01*
X134621158Y-82839000D01*
X134366005Y-82839000D01*
X134366000Y-82838999D01*
X134133948Y-82885158D01*
X134087789Y-82894340D01*
X133851933Y-83051933D01*
X133851931Y-83051936D01*
X133089933Y-83813933D01*
X132932340Y-84049789D01*
X132926317Y-84080067D01*
X132876999Y-84328000D01*
X132877000Y-84328005D01*
X132877000Y-88391995D01*
X132876999Y-88392000D01*
X132923158Y-88624052D01*
X132932340Y-88670211D01*
X133089933Y-88906067D01*
X140931059Y-96747193D01*
X141030495Y-96987846D01*
X141262930Y-97220688D01*
X141566778Y-97346856D01*
X141895779Y-97347143D01*
X142199846Y-97221505D01*
X142432688Y-96989070D01*
X142558856Y-96685222D01*
X142559143Y-96356221D01*
X142433505Y-96052154D01*
X142201070Y-95819312D01*
X141958881Y-95718747D01*
X141660134Y-95420000D01*
X145682676Y-95420000D01*
X145682676Y-97620000D01*
X145719423Y-97815294D01*
X145834842Y-97994660D01*
X146010951Y-98114990D01*
X146220000Y-98157324D01*
X148420000Y-98157324D01*
X148615294Y-98120577D01*
X148794660Y-98005158D01*
X148910032Y-97836305D01*
X149237374Y-98055027D01*
X149860000Y-98178875D01*
X150482626Y-98055027D01*
X151010463Y-97702338D01*
X151363152Y-97174501D01*
X151487000Y-96551875D01*
X151487000Y-96488125D01*
X151363152Y-95865499D01*
X151010463Y-95337662D01*
X150482626Y-94984973D01*
X149860000Y-94861125D01*
X149237374Y-94984973D01*
X148907952Y-95205086D01*
X148805158Y-95045340D01*
X148629049Y-94925010D01*
X148420000Y-94882676D01*
X146220000Y-94882676D01*
X146024706Y-94919423D01*
X145845340Y-95034842D01*
X145725010Y-95210951D01*
X145682676Y-95420000D01*
X141660134Y-95420000D01*
X134331000Y-88090866D01*
X134331000Y-84629134D01*
X134612398Y-84347735D01*
X134590676Y-84455000D01*
X134590676Y-85979000D01*
X134627423Y-86174294D01*
X134742842Y-86353660D01*
X134918951Y-86473990D01*
X135128000Y-86516324D01*
X137160000Y-86516324D01*
X137355294Y-86479577D01*
X137534660Y-86364158D01*
X137654990Y-86188049D01*
X137697324Y-85979000D01*
X137697324Y-85944000D01*
X140033866Y-85944000D01*
X147789059Y-93699193D01*
X147888495Y-93939846D01*
X148120930Y-94172688D01*
X148424778Y-94298856D01*
X148753779Y-94299143D01*
X149057846Y-94173505D01*
X149290688Y-93941070D01*
X149416856Y-93637222D01*
X149417143Y-93308221D01*
X149291505Y-93004154D01*
X149059070Y-92771312D01*
X148816881Y-92670747D01*
X140849067Y-84702933D01*
X140613211Y-84545340D01*
X140567052Y-84536158D01*
X140335000Y-84489999D01*
X140334995Y-84490000D01*
X137697324Y-84490000D01*
X137697324Y-84455000D01*
X137666842Y-84293000D01*
X142366995Y-84293000D01*
X142367000Y-84293001D01*
X142603530Y-84245951D01*
X142645211Y-84237660D01*
X142881067Y-84080067D01*
X144254810Y-82706324D01*
X145542000Y-82706324D01*
X145737294Y-82669577D01*
X145916660Y-82554158D01*
X146036990Y-82378049D01*
X146079324Y-82169000D01*
X146079324Y-80645000D01*
X146042577Y-80449706D01*
X145927158Y-80270340D01*
X145751049Y-80150010D01*
X145542000Y-80107676D01*
X143510000Y-80107676D01*
X143314706Y-80144423D01*
X143135340Y-80259842D01*
X143015010Y-80435951D01*
X142972676Y-80645000D01*
X142972676Y-81932190D01*
X142065866Y-82839000D01*
X137664518Y-82839000D01*
X137697324Y-82677000D01*
X137697324Y-81153000D01*
X137660577Y-80957706D01*
X137545158Y-80778340D01*
X137369049Y-80658010D01*
X137160000Y-80615676D01*
X136871000Y-80615676D01*
X136871000Y-80420324D01*
X137160000Y-80420324D01*
X137355294Y-80383577D01*
X137534660Y-80268158D01*
X137654990Y-80092049D01*
X137697324Y-79883000D01*
X137697324Y-78359000D01*
X137666842Y-78197000D01*
X138175995Y-78197000D01*
X138176000Y-78197001D01*
X138412530Y-78149951D01*
X138454211Y-78141660D01*
X138690067Y-77984067D01*
X139331134Y-77343000D01*
X142972676Y-77343000D01*
X142972676Y-78867000D01*
X143009423Y-79062294D01*
X143124842Y-79241660D01*
X143300951Y-79361990D01*
X143510000Y-79404324D01*
X145542000Y-79404324D01*
X145737294Y-79367577D01*
X145916660Y-79252158D01*
X146036990Y-79076049D01*
X146060693Y-78959000D01*
X146406297Y-78959000D01*
X146646778Y-79058856D01*
X146975779Y-79059143D01*
X147279846Y-78933505D01*
X147512688Y-78701070D01*
X147638856Y-78397222D01*
X147639143Y-78068221D01*
X147513505Y-77764154D01*
X147281070Y-77531312D01*
X146977222Y-77405144D01*
X146648221Y-77404857D01*
X146405857Y-77505000D01*
X146079324Y-77505000D01*
X146079324Y-77343000D01*
X146042577Y-77147706D01*
X145927158Y-76968340D01*
X145751049Y-76848010D01*
X145542000Y-76805676D01*
X143510000Y-76805676D01*
X143314706Y-76842423D01*
X143135340Y-76957842D01*
X143015010Y-77133951D01*
X142972676Y-77343000D01*
X139331134Y-77343000D01*
X140722067Y-75952067D01*
X140762202Y-75892000D01*
X140879660Y-75716211D01*
X140889292Y-75667789D01*
X140935001Y-75438000D01*
X140935000Y-75437995D01*
X140935000Y-68699912D01*
X140970000Y-68707000D01*
X147320000Y-68707000D01*
X147366159Y-68698315D01*
X147408553Y-68671035D01*
X147436994Y-68629410D01*
X147447000Y-68580000D01*
X147447000Y-63500000D01*
X147438315Y-63453841D01*
X147411035Y-63411447D01*
X147369410Y-63383006D01*
X147320000Y-63373000D01*
X140970000Y-63373000D01*
X140935000Y-63379585D01*
X140935000Y-58357973D01*
X141232096Y-58655588D01*
X141884982Y-58926690D01*
X142591916Y-58927307D01*
X143245274Y-58657345D01*
X143745588Y-58157904D01*
X144016690Y-57505018D01*
X144017307Y-56798084D01*
X143772814Y-56206364D01*
X144456070Y-56206364D01*
X144692142Y-56776308D01*
X145138505Y-57227710D01*
X145723635Y-57473936D01*
X145977000Y-57373617D01*
X145977000Y-55953000D01*
X146123000Y-55953000D01*
X146123000Y-57373617D01*
X146376365Y-57473936D01*
X146961495Y-57227710D01*
X147407858Y-56776308D01*
X147643930Y-56206364D01*
X147543467Y-55953000D01*
X146123000Y-55953000D01*
X145977000Y-55953000D01*
X144556533Y-55953000D01*
X144456070Y-56206364D01*
X143772814Y-56206364D01*
X143747345Y-56144726D01*
X143247904Y-55644412D01*
X142595018Y-55373310D01*
X141888084Y-55372693D01*
X141234726Y-55642655D01*
X140935000Y-55941858D01*
X140935000Y-55673134D01*
X142754067Y-53854067D01*
X142758996Y-53846690D01*
X142822147Y-53752178D01*
X143245274Y-53577345D01*
X143277925Y-53544750D01*
X144423000Y-53544750D01*
X144423000Y-54544827D01*
X144503231Y-54738521D01*
X144651478Y-54886769D01*
X144748318Y-54926882D01*
X144692142Y-54983692D01*
X144456070Y-55553636D01*
X144556533Y-55807000D01*
X145977000Y-55807000D01*
X145977000Y-53413000D01*
X146123000Y-53413000D01*
X146123000Y-55807000D01*
X147543467Y-55807000D01*
X147643930Y-55553636D01*
X147407858Y-54983692D01*
X147351682Y-54926882D01*
X147448522Y-54886769D01*
X147596769Y-54738521D01*
X147677000Y-54544827D01*
X147677000Y-53544750D01*
X147545250Y-53413000D01*
X146123000Y-53413000D01*
X145977000Y-53413000D01*
X144554750Y-53413000D01*
X144423000Y-53544750D01*
X143277925Y-53544750D01*
X143745588Y-53077904D01*
X144016690Y-52425018D01*
X144016942Y-52135173D01*
X144423000Y-52135173D01*
X144423000Y-53135250D01*
X144554750Y-53267000D01*
X145977000Y-53267000D01*
X145977000Y-51844750D01*
X146123000Y-51844750D01*
X146123000Y-53267000D01*
X147545250Y-53267000D01*
X147677000Y-53135250D01*
X147677000Y-52135173D01*
X147596769Y-51941479D01*
X147448522Y-51793231D01*
X147254827Y-51713000D01*
X146254750Y-51713000D01*
X146123000Y-51844750D01*
X145977000Y-51844750D01*
X145845250Y-51713000D01*
X144845173Y-51713000D01*
X144651478Y-51793231D01*
X144503231Y-51941479D01*
X144423000Y-52135173D01*
X144016942Y-52135173D01*
X144017307Y-51718084D01*
X143747345Y-51064726D01*
X143450139Y-50767000D01*
X151070707Y-50767000D01*
X151867127Y-50925418D01*
X152492033Y-51342967D01*
X152909582Y-51967872D01*
X153068000Y-52764293D01*
X153068000Y-96460707D01*
X152909582Y-97257128D01*
X152492033Y-97882033D01*
X151867127Y-98299582D01*
X151070707Y-98458000D01*
X125789293Y-98458000D01*
X124992872Y-98299582D01*
X124367967Y-97882033D01*
X123950418Y-97257127D01*
X123792000Y-96460707D01*
X123792000Y-95420000D01*
X125362676Y-95420000D01*
X125362676Y-97620000D01*
X125399423Y-97815294D01*
X125514842Y-97994660D01*
X125690951Y-98114990D01*
X125900000Y-98157324D01*
X128100000Y-98157324D01*
X128295294Y-98120577D01*
X128474660Y-98005158D01*
X128590032Y-97836305D01*
X128917374Y-98055027D01*
X129540000Y-98178875D01*
X130162626Y-98055027D01*
X130690463Y-97702338D01*
X131043152Y-97174501D01*
X131167000Y-96551875D01*
X131167000Y-96488125D01*
X131043152Y-95865499D01*
X130690463Y-95337662D01*
X130162626Y-94984973D01*
X129540000Y-94861125D01*
X128917374Y-94984973D01*
X128587952Y-95205086D01*
X128485158Y-95045340D01*
X128309049Y-94925010D01*
X128100000Y-94882676D01*
X125900000Y-94882676D01*
X125704706Y-94919423D01*
X125525340Y-95034842D01*
X125405010Y-95210951D01*
X125362676Y-95420000D01*
X123792000Y-95420000D01*
X123792000Y-63985173D01*
X131343000Y-63985173D01*
X131343000Y-68885250D01*
X131474750Y-69017000D01*
X134297000Y-69017000D01*
X134297000Y-63694750D01*
X134443000Y-63694750D01*
X134443000Y-69017000D01*
X137265250Y-69017000D01*
X137397000Y-68885250D01*
X137397000Y-63985173D01*
X137316769Y-63791479D01*
X137168522Y-63643231D01*
X136974827Y-63563000D01*
X134574750Y-63563000D01*
X134443000Y-63694750D01*
X134297000Y-63694750D01*
X134165250Y-63563000D01*
X131765173Y-63563000D01*
X131571478Y-63643231D01*
X131423231Y-63791479D01*
X131343000Y-63985173D01*
X123792000Y-63985173D01*
X123792000Y-58388481D01*
X133484757Y-58388481D01*
X133614966Y-58657506D01*
X134268367Y-58927364D01*
X134975301Y-58926634D01*
X135625034Y-58657506D01*
X135755243Y-58388481D01*
X134620000Y-57253238D01*
X133484757Y-58388481D01*
X123792000Y-58388481D01*
X123792000Y-55880000D01*
X129151125Y-55880000D01*
X129274973Y-56502626D01*
X129627662Y-57030463D01*
X130155499Y-57383152D01*
X130778125Y-57507000D01*
X130841875Y-57507000D01*
X131464501Y-57383152D01*
X131992338Y-57030463D01*
X132147419Y-56798367D01*
X132842636Y-56798367D01*
X132843366Y-57505301D01*
X133112494Y-58155034D01*
X133381519Y-58285243D01*
X134516762Y-57150000D01*
X134723238Y-57150000D01*
X135858481Y-58285243D01*
X136127506Y-58155034D01*
X136397364Y-57501633D01*
X136396634Y-56794699D01*
X136127506Y-56144966D01*
X135858481Y-56014757D01*
X134723238Y-57150000D01*
X134516762Y-57150000D01*
X133381519Y-56014757D01*
X133112494Y-56144966D01*
X132842636Y-56798367D01*
X132147419Y-56798367D01*
X132345027Y-56502626D01*
X132462605Y-55911519D01*
X133484757Y-55911519D01*
X134620000Y-57046762D01*
X135755243Y-55911519D01*
X135625034Y-55642494D01*
X134971633Y-55372636D01*
X134264699Y-55373366D01*
X133614966Y-55642494D01*
X133484757Y-55911519D01*
X132462605Y-55911519D01*
X132468875Y-55880000D01*
X132345027Y-55257374D01*
X132124914Y-54927952D01*
X132284660Y-54825158D01*
X132404990Y-54649049D01*
X132447324Y-54440000D01*
X132447324Y-52240000D01*
X132410577Y-52044706D01*
X132295158Y-51865340D01*
X132119049Y-51745010D01*
X131910000Y-51702676D01*
X129710000Y-51702676D01*
X129514706Y-51739423D01*
X129335340Y-51854842D01*
X129215010Y-52030951D01*
X129172676Y-52240000D01*
X129172676Y-54440000D01*
X129209423Y-54635294D01*
X129324842Y-54814660D01*
X129493695Y-54930032D01*
X129274973Y-55257374D01*
X129151125Y-55880000D01*
X123792000Y-55880000D01*
X123792000Y-52764293D01*
X123950418Y-51967873D01*
X124367967Y-51342967D01*
X124992872Y-50925418D01*
X125789293Y-50767000D01*
X133410024Y-50767000D01*
X133114412Y-51062096D01*
X133114412Y-51062096D01*
G37*
X133114412Y-51062096D02*
X132843310Y-51714982D01*
X132842693Y-52421916D01*
X133112655Y-53075274D01*
X133612096Y-53575588D01*
X134264982Y-53846690D01*
X134971916Y-53847307D01*
X135625274Y-53577345D01*
X136125588Y-53077904D01*
X136396690Y-52425018D01*
X136397307Y-51718084D01*
X136127345Y-51064726D01*
X135830139Y-50767000D01*
X141030024Y-50767000D01*
X140734412Y-51062096D01*
X140463310Y-51714982D01*
X140462693Y-52421916D01*
X140732655Y-53075274D01*
X141104299Y-53447567D01*
X139693933Y-54857933D01*
X139536340Y-55093789D01*
X139536340Y-55093790D01*
X139480999Y-55372000D01*
X139481000Y-55372005D01*
X139481000Y-75136866D01*
X137874866Y-76743000D01*
X137663318Y-76743000D01*
X137687000Y-76685827D01*
X137687000Y-76023750D01*
X137555250Y-75892000D01*
X136217000Y-75892000D01*
X136217000Y-75912000D01*
X136071000Y-75912000D01*
X136071000Y-75892000D01*
X134732750Y-75892000D01*
X134601000Y-76023750D01*
X134601000Y-76685827D01*
X134624682Y-76743000D01*
X132993703Y-76743000D01*
X132753222Y-76643144D01*
X132424221Y-76642857D01*
X132120154Y-76768495D01*
X131887312Y-77000930D01*
X131791000Y-77232876D01*
X131791000Y-74617000D01*
X134165250Y-74617000D01*
X134297000Y-74485250D01*
X134297000Y-69163000D01*
X134443000Y-69163000D01*
X134443000Y-74485250D01*
X134574750Y-74617000D01*
X134822710Y-74617000D01*
X134681231Y-74758478D01*
X134601000Y-74952173D01*
X134601000Y-75614250D01*
X134732750Y-75746000D01*
X136071000Y-75746000D01*
X136071000Y-75726000D01*
X136217000Y-75726000D01*
X136217000Y-75746000D01*
X137555250Y-75746000D01*
X137687000Y-75614250D01*
X137687000Y-74952173D01*
X137606769Y-74758478D01*
X137458521Y-74610231D01*
X137264827Y-74530000D01*
X137175291Y-74530000D01*
X137316769Y-74388521D01*
X137397000Y-74194827D01*
X137397000Y-69294750D01*
X137265250Y-69163000D01*
X134443000Y-69163000D01*
X134297000Y-69163000D01*
X131474750Y-69163000D01*
X131343000Y-69294750D01*
X131343000Y-69324388D01*
X131229222Y-69277144D01*
X130900221Y-69276857D01*
X130596154Y-69402495D01*
X130363312Y-69634930D01*
X130237144Y-69938778D01*
X130236857Y-70267779D01*
X130337000Y-70510143D01*
X130337000Y-92154866D01*
X129746866Y-92745000D01*
X127405703Y-92745000D01*
X127165222Y-92645144D01*
X126836221Y-92644857D01*
X126532154Y-92770495D01*
X126299312Y-93002930D01*
X126173144Y-93306778D01*
X126172857Y-93635779D01*
X126298495Y-93939846D01*
X126530930Y-94172688D01*
X126834778Y-94298856D01*
X127163779Y-94299143D01*
X127406143Y-94199000D01*
X130047995Y-94199000D01*
X130048000Y-94199001D01*
X130280052Y-94152842D01*
X130326211Y-94143660D01*
X130562067Y-93986067D01*
X131578067Y-92970067D01*
X131691474Y-92800340D01*
X131735660Y-92734211D01*
X131753434Y-92644857D01*
X131791001Y-92456000D01*
X131791000Y-92455995D01*
X131791000Y-77706731D01*
X131886495Y-77937846D01*
X132118930Y-78170688D01*
X132422778Y-78296856D01*
X132751779Y-78297143D01*
X132994143Y-78197000D01*
X133875269Y-78197000D01*
X133644154Y-78292495D01*
X133411312Y-78524930D01*
X133285144Y-78828778D01*
X133284857Y-79157779D01*
X133410495Y-79461846D01*
X133642930Y-79694688D01*
X133946778Y-79820856D01*
X134103225Y-79820992D01*
X134239000Y-79848000D01*
X134590676Y-79848000D01*
X134590676Y-79883000D01*
X134627423Y-80078294D01*
X134742842Y-80257660D01*
X134918951Y-80377990D01*
X135128000Y-80420324D01*
X135417000Y-80420324D01*
X135417000Y-80615676D01*
X135128000Y-80615676D01*
X134932706Y-80652423D01*
X134753340Y-80767842D01*
X134633010Y-80943951D01*
X134590676Y-81153000D01*
X134590676Y-82677000D01*
X134621158Y-82839000D01*
X134366005Y-82839000D01*
X134366000Y-82838999D01*
X134133948Y-82885158D01*
X134087789Y-82894340D01*
X133851933Y-83051933D01*
X133851931Y-83051936D01*
X133089933Y-83813933D01*
X132932340Y-84049789D01*
X132926317Y-84080067D01*
X132876999Y-84328000D01*
X132877000Y-84328005D01*
X132877000Y-88391995D01*
X132876999Y-88392000D01*
X132923158Y-88624052D01*
X132932340Y-88670211D01*
X133089933Y-88906067D01*
X140931059Y-96747193D01*
X141030495Y-96987846D01*
X141262930Y-97220688D01*
X141566778Y-97346856D01*
X141895779Y-97347143D01*
X142199846Y-97221505D01*
X142432688Y-96989070D01*
X142558856Y-96685222D01*
X142559143Y-96356221D01*
X142433505Y-96052154D01*
X142201070Y-95819312D01*
X141958881Y-95718747D01*
X141660134Y-95420000D01*
X145682676Y-95420000D01*
X145682676Y-97620000D01*
X145719423Y-97815294D01*
X145834842Y-97994660D01*
X146010951Y-98114990D01*
X146220000Y-98157324D01*
X148420000Y-98157324D01*
X148615294Y-98120577D01*
X148794660Y-98005158D01*
X148910032Y-97836305D01*
X149237374Y-98055027D01*
X149860000Y-98178875D01*
X150482626Y-98055027D01*
X151010463Y-97702338D01*
X151363152Y-97174501D01*
X151487000Y-96551875D01*
X151487000Y-96488125D01*
X151363152Y-95865499D01*
X151010463Y-95337662D01*
X150482626Y-94984973D01*
X149860000Y-94861125D01*
X149237374Y-94984973D01*
X148907952Y-95205086D01*
X148805158Y-95045340D01*
X148629049Y-94925010D01*
X148420000Y-94882676D01*
X146220000Y-94882676D01*
X146024706Y-94919423D01*
X145845340Y-95034842D01*
X145725010Y-95210951D01*
X145682676Y-95420000D01*
X141660134Y-95420000D01*
X134331000Y-88090866D01*
X134331000Y-84629134D01*
X134612398Y-84347735D01*
X134590676Y-84455000D01*
X134590676Y-85979000D01*
X134627423Y-86174294D01*
X134742842Y-86353660D01*
X134918951Y-86473990D01*
X135128000Y-86516324D01*
X137160000Y-86516324D01*
X137355294Y-86479577D01*
X137534660Y-86364158D01*
X137654990Y-86188049D01*
X137697324Y-85979000D01*
X137697324Y-85944000D01*
X140033866Y-85944000D01*
X147789059Y-93699193D01*
X147888495Y-93939846D01*
X148120930Y-94172688D01*
X148424778Y-94298856D01*
X148753779Y-94299143D01*
X149057846Y-94173505D01*
X149290688Y-93941070D01*
X149416856Y-93637222D01*
X149417143Y-93308221D01*
X149291505Y-93004154D01*
X149059070Y-92771312D01*
X148816881Y-92670747D01*
X140849067Y-84702933D01*
X140613211Y-84545340D01*
X140567052Y-84536158D01*
X140335000Y-84489999D01*
X140334995Y-84490000D01*
X137697324Y-84490000D01*
X137697324Y-84455000D01*
X137666842Y-84293000D01*
X142366995Y-84293000D01*
X142367000Y-84293001D01*
X142603530Y-84245951D01*
X142645211Y-84237660D01*
X142881067Y-84080067D01*
X144254810Y-82706324D01*
X145542000Y-82706324D01*
X145737294Y-82669577D01*
X145916660Y-82554158D01*
X146036990Y-82378049D01*
X146079324Y-82169000D01*
X146079324Y-80645000D01*
X146042577Y-80449706D01*
X145927158Y-80270340D01*
X145751049Y-80150010D01*
X145542000Y-80107676D01*
X143510000Y-80107676D01*
X143314706Y-80144423D01*
X143135340Y-80259842D01*
X143015010Y-80435951D01*
X142972676Y-80645000D01*
X142972676Y-81932190D01*
X142065866Y-82839000D01*
X137664518Y-82839000D01*
X137697324Y-82677000D01*
X137697324Y-81153000D01*
X137660577Y-80957706D01*
X137545158Y-80778340D01*
X137369049Y-80658010D01*
X137160000Y-80615676D01*
X136871000Y-80615676D01*
X136871000Y-80420324D01*
X137160000Y-80420324D01*
X137355294Y-80383577D01*
X137534660Y-80268158D01*
X137654990Y-80092049D01*
X137697324Y-79883000D01*
X137697324Y-78359000D01*
X137666842Y-78197000D01*
X138175995Y-78197000D01*
X138176000Y-78197001D01*
X138412530Y-78149951D01*
X138454211Y-78141660D01*
X138690067Y-77984067D01*
X139331134Y-77343000D01*
X142972676Y-77343000D01*
X142972676Y-78867000D01*
X143009423Y-79062294D01*
X143124842Y-79241660D01*
X143300951Y-79361990D01*
X143510000Y-79404324D01*
X145542000Y-79404324D01*
X145737294Y-79367577D01*
X145916660Y-79252158D01*
X146036990Y-79076049D01*
X146060693Y-78959000D01*
X146406297Y-78959000D01*
X146646778Y-79058856D01*
X146975779Y-79059143D01*
X147279846Y-78933505D01*
X147512688Y-78701070D01*
X147638856Y-78397222D01*
X147639143Y-78068221D01*
X147513505Y-77764154D01*
X147281070Y-77531312D01*
X146977222Y-77405144D01*
X146648221Y-77404857D01*
X146405857Y-77505000D01*
X146079324Y-77505000D01*
X146079324Y-77343000D01*
X146042577Y-77147706D01*
X145927158Y-76968340D01*
X145751049Y-76848010D01*
X145542000Y-76805676D01*
X143510000Y-76805676D01*
X143314706Y-76842423D01*
X143135340Y-76957842D01*
X143015010Y-77133951D01*
X142972676Y-77343000D01*
X139331134Y-77343000D01*
X140722067Y-75952067D01*
X140762202Y-75892000D01*
X140879660Y-75716211D01*
X140889292Y-75667789D01*
X140935001Y-75438000D01*
X140935000Y-75437995D01*
X140935000Y-68699912D01*
X140970000Y-68707000D01*
X147320000Y-68707000D01*
X147366159Y-68698315D01*
X147408553Y-68671035D01*
X147436994Y-68629410D01*
X147447000Y-68580000D01*
X147447000Y-63500000D01*
X147438315Y-63453841D01*
X147411035Y-63411447D01*
X147369410Y-63383006D01*
X147320000Y-63373000D01*
X140970000Y-63373000D01*
X140935000Y-63379585D01*
X140935000Y-58357973D01*
X141232096Y-58655588D01*
X141884982Y-58926690D01*
X142591916Y-58927307D01*
X143245274Y-58657345D01*
X143745588Y-58157904D01*
X144016690Y-57505018D01*
X144017307Y-56798084D01*
X143772814Y-56206364D01*
X144456070Y-56206364D01*
X144692142Y-56776308D01*
X145138505Y-57227710D01*
X145723635Y-57473936D01*
X145977000Y-57373617D01*
X145977000Y-55953000D01*
X146123000Y-55953000D01*
X146123000Y-57373617D01*
X146376365Y-57473936D01*
X146961495Y-57227710D01*
X147407858Y-56776308D01*
X147643930Y-56206364D01*
X147543467Y-55953000D01*
X146123000Y-55953000D01*
X145977000Y-55953000D01*
X144556533Y-55953000D01*
X144456070Y-56206364D01*
X143772814Y-56206364D01*
X143747345Y-56144726D01*
X143247904Y-55644412D01*
X142595018Y-55373310D01*
X141888084Y-55372693D01*
X141234726Y-55642655D01*
X140935000Y-55941858D01*
X140935000Y-55673134D01*
X142754067Y-53854067D01*
X142758996Y-53846690D01*
X142822147Y-53752178D01*
X143245274Y-53577345D01*
X143277925Y-53544750D01*
X144423000Y-53544750D01*
X144423000Y-54544827D01*
X144503231Y-54738521D01*
X144651478Y-54886769D01*
X144748318Y-54926882D01*
X144692142Y-54983692D01*
X144456070Y-55553636D01*
X144556533Y-55807000D01*
X145977000Y-55807000D01*
X145977000Y-53413000D01*
X146123000Y-53413000D01*
X146123000Y-55807000D01*
X147543467Y-55807000D01*
X147643930Y-55553636D01*
X147407858Y-54983692D01*
X147351682Y-54926882D01*
X147448522Y-54886769D01*
X147596769Y-54738521D01*
X147677000Y-54544827D01*
X147677000Y-53544750D01*
X147545250Y-53413000D01*
X146123000Y-53413000D01*
X145977000Y-53413000D01*
X144554750Y-53413000D01*
X144423000Y-53544750D01*
X143277925Y-53544750D01*
X143745588Y-53077904D01*
X144016690Y-52425018D01*
X144016942Y-52135173D01*
X144423000Y-52135173D01*
X144423000Y-53135250D01*
X144554750Y-53267000D01*
X145977000Y-53267000D01*
X145977000Y-51844750D01*
X146123000Y-51844750D01*
X146123000Y-53267000D01*
X147545250Y-53267000D01*
X147677000Y-53135250D01*
X147677000Y-52135173D01*
X147596769Y-51941479D01*
X147448522Y-51793231D01*
X147254827Y-51713000D01*
X146254750Y-51713000D01*
X146123000Y-51844750D01*
X145977000Y-51844750D01*
X145845250Y-51713000D01*
X144845173Y-51713000D01*
X144651478Y-51793231D01*
X144503231Y-51941479D01*
X144423000Y-52135173D01*
X144016942Y-52135173D01*
X144017307Y-51718084D01*
X143747345Y-51064726D01*
X143450139Y-50767000D01*
X151070707Y-50767000D01*
X151867127Y-50925418D01*
X152492033Y-51342967D01*
X152909582Y-51967872D01*
X153068000Y-52764293D01*
X153068000Y-96460707D01*
X152909582Y-97257128D01*
X152492033Y-97882033D01*
X151867127Y-98299582D01*
X151070707Y-98458000D01*
X125789293Y-98458000D01*
X124992872Y-98299582D01*
X124367967Y-97882033D01*
X123950418Y-97257127D01*
X123792000Y-96460707D01*
X123792000Y-95420000D01*
X125362676Y-95420000D01*
X125362676Y-97620000D01*
X125399423Y-97815294D01*
X125514842Y-97994660D01*
X125690951Y-98114990D01*
X125900000Y-98157324D01*
X128100000Y-98157324D01*
X128295294Y-98120577D01*
X128474660Y-98005158D01*
X128590032Y-97836305D01*
X128917374Y-98055027D01*
X129540000Y-98178875D01*
X130162626Y-98055027D01*
X130690463Y-97702338D01*
X131043152Y-97174501D01*
X131167000Y-96551875D01*
X131167000Y-96488125D01*
X131043152Y-95865499D01*
X130690463Y-95337662D01*
X130162626Y-94984973D01*
X129540000Y-94861125D01*
X128917374Y-94984973D01*
X128587952Y-95205086D01*
X128485158Y-95045340D01*
X128309049Y-94925010D01*
X128100000Y-94882676D01*
X125900000Y-94882676D01*
X125704706Y-94919423D01*
X125525340Y-95034842D01*
X125405010Y-95210951D01*
X125362676Y-95420000D01*
X123792000Y-95420000D01*
X123792000Y-63985173D01*
X131343000Y-63985173D01*
X131343000Y-68885250D01*
X131474750Y-69017000D01*
X134297000Y-69017000D01*
X134297000Y-63694750D01*
X134443000Y-63694750D01*
X134443000Y-69017000D01*
X137265250Y-69017000D01*
X137397000Y-68885250D01*
X137397000Y-63985173D01*
X137316769Y-63791479D01*
X137168522Y-63643231D01*
X136974827Y-63563000D01*
X134574750Y-63563000D01*
X134443000Y-63694750D01*
X134297000Y-63694750D01*
X134165250Y-63563000D01*
X131765173Y-63563000D01*
X131571478Y-63643231D01*
X131423231Y-63791479D01*
X131343000Y-63985173D01*
X123792000Y-63985173D01*
X123792000Y-58388481D01*
X133484757Y-58388481D01*
X133614966Y-58657506D01*
X134268367Y-58927364D01*
X134975301Y-58926634D01*
X135625034Y-58657506D01*
X135755243Y-58388481D01*
X134620000Y-57253238D01*
X133484757Y-58388481D01*
X123792000Y-58388481D01*
X123792000Y-55880000D01*
X129151125Y-55880000D01*
X129274973Y-56502626D01*
X129627662Y-57030463D01*
X130155499Y-57383152D01*
X130778125Y-57507000D01*
X130841875Y-57507000D01*
X131464501Y-57383152D01*
X131992338Y-57030463D01*
X132147419Y-56798367D01*
X132842636Y-56798367D01*
X132843366Y-57505301D01*
X133112494Y-58155034D01*
X133381519Y-58285243D01*
X134516762Y-57150000D01*
X134723238Y-57150000D01*
X135858481Y-58285243D01*
X136127506Y-58155034D01*
X136397364Y-57501633D01*
X136396634Y-56794699D01*
X136127506Y-56144966D01*
X135858481Y-56014757D01*
X134723238Y-57150000D01*
X134516762Y-57150000D01*
X133381519Y-56014757D01*
X133112494Y-56144966D01*
X132842636Y-56798367D01*
X132147419Y-56798367D01*
X132345027Y-56502626D01*
X132462605Y-55911519D01*
X133484757Y-55911519D01*
X134620000Y-57046762D01*
X135755243Y-55911519D01*
X135625034Y-55642494D01*
X134971633Y-55372636D01*
X134264699Y-55373366D01*
X133614966Y-55642494D01*
X133484757Y-55911519D01*
X132462605Y-55911519D01*
X132468875Y-55880000D01*
X132345027Y-55257374D01*
X132124914Y-54927952D01*
X132284660Y-54825158D01*
X132404990Y-54649049D01*
X132447324Y-54440000D01*
X132447324Y-52240000D01*
X132410577Y-52044706D01*
X132295158Y-51865340D01*
X132119049Y-51745010D01*
X131910000Y-51702676D01*
X129710000Y-51702676D01*
X129514706Y-51739423D01*
X129335340Y-51854842D01*
X129215010Y-52030951D01*
X129172676Y-52240000D01*
X129172676Y-54440000D01*
X129209423Y-54635294D01*
X129324842Y-54814660D01*
X129493695Y-54930032D01*
X129274973Y-55257374D01*
X129151125Y-55880000D01*
X123792000Y-55880000D01*
X123792000Y-52764293D01*
X123950418Y-51967873D01*
X124367967Y-51342967D01*
X124992872Y-50925418D01*
X125789293Y-50767000D01*
X133410024Y-50767000D01*
X133114412Y-51062096D01*
M02*
