G04 #@! TF.FileFunction,Copper,L1,Top,Signal*
%FSLAX46Y46*%
G04 Gerber Fmt 4.6, Leading zero omitted, Abs format (unit mm)*
G04 Created by KiCad (PCBNEW 4.0.6) date 12/04/17 20:40:56*
%MOMM*%
%LPD*%
G01*
G04 APERTURE LIST*
%ADD10C,0.050000*%
%ADD11R,1.500000X1.300000*%
%ADD12O,4.500000X1.524000*%
%ADD13O,1.524000X4.500000*%
%ADD14C,2.500000*%
%ADD15R,2.200000X2.200000*%
%ADD16O,2.200000X2.200000*%
%ADD17C,0.600000*%
%ADD18C,0.400000*%
%ADD19C,0.254000*%
G04 APERTURE END LIST*
D10*
D11*
X137080000Y-96520000D03*
X139780000Y-96520000D03*
D12*
X128270000Y-66120000D03*
X128270000Y-68120000D03*
X128270000Y-70120000D03*
X128270000Y-72120000D03*
X128270000Y-74120000D03*
X128270000Y-76120000D03*
X128270000Y-78120000D03*
X128270000Y-80120000D03*
X128270000Y-82120000D03*
X128270000Y-84120000D03*
X128270000Y-86120000D03*
X128270000Y-88120000D03*
X128270000Y-90120000D03*
D13*
X132270000Y-92200000D03*
X134270000Y-92200000D03*
X136270000Y-92200000D03*
X138270000Y-92200000D03*
X140270000Y-92200000D03*
X142270000Y-92200000D03*
X144270000Y-92200000D03*
X146270000Y-92200000D03*
D12*
X150170000Y-90120000D03*
X150170000Y-88120000D03*
X150170000Y-86120000D03*
X150170000Y-84120000D03*
X150170000Y-82120000D03*
X150170000Y-80120000D03*
X150170000Y-78120000D03*
X150170000Y-76120000D03*
X150170000Y-74120000D03*
X150170000Y-72120000D03*
X150170000Y-70120000D03*
X150170000Y-68120000D03*
X150170000Y-66120000D03*
X150170000Y-64120000D03*
X150170000Y-62120000D03*
X150170000Y-60120000D03*
D14*
X142240000Y-52070000D03*
X134620000Y-52070000D03*
X134620000Y-57150000D03*
X142240000Y-57150000D03*
D15*
X147320000Y-96520000D03*
D16*
X149860000Y-96520000D03*
D15*
X127000000Y-96520000D03*
D16*
X129540000Y-96520000D03*
D15*
X146050000Y-53340000D03*
D16*
X146050000Y-55880000D03*
D15*
X130810000Y-53340000D03*
D16*
X130810000Y-55880000D03*
D17*
X128270000Y-63500000D03*
X138430000Y-74676000D03*
X138176000Y-53848000D03*
X141732000Y-96520000D03*
X148590000Y-93472000D03*
X131064000Y-70104000D03*
X127000000Y-93472000D03*
X134112000Y-78994000D03*
X146812000Y-78232000D03*
X132588000Y-77470000D03*
D18*
X150170000Y-64120000D02*
X148575000Y-64120000D01*
X148575000Y-64120000D02*
X146050000Y-61595000D01*
X146050000Y-61595000D02*
X146050000Y-55880000D01*
X128270000Y-66120000D02*
X128270000Y-63500000D01*
X139192000Y-87884000D02*
X139192000Y-75438000D01*
X139192000Y-75438000D02*
X138430000Y-74676000D01*
X150170000Y-90120000D02*
X148286000Y-90120000D01*
X148286000Y-90120000D02*
X146050000Y-87884000D01*
X146050000Y-87884000D02*
X139192000Y-87884000D01*
X139192000Y-87884000D02*
X131572000Y-87884000D01*
X137080000Y-96520000D02*
X132080000Y-96520000D01*
X128270000Y-92710000D02*
X128270000Y-90120000D01*
X132080000Y-96520000D02*
X128270000Y-92710000D01*
X128270000Y-86120000D02*
X130824000Y-86120000D01*
X130606000Y-90120000D02*
X128270000Y-90120000D01*
X131572000Y-89154000D02*
X130606000Y-90120000D01*
X131572000Y-86868000D02*
X131572000Y-87884000D01*
X131572000Y-87884000D02*
X131572000Y-89154000D01*
X130824000Y-86120000D02*
X131572000Y-86868000D01*
X146050000Y-53340000D02*
X145542000Y-53848000D01*
X145542000Y-53848000D02*
X138176000Y-53848000D01*
X146050000Y-53340000D02*
X146050000Y-55880000D01*
X141732000Y-96520000D02*
X139780000Y-96520000D01*
X149860000Y-94742000D02*
X149860000Y-96520000D01*
X148590000Y-93472000D02*
X149860000Y-94742000D01*
X147320000Y-96520000D02*
X149860000Y-96520000D01*
X131048000Y-70120000D02*
X131064000Y-70104000D01*
X128270000Y-70120000D02*
X131048000Y-70120000D01*
X127000000Y-93472000D02*
X127000000Y-96520000D01*
X127000000Y-96520000D02*
X129540000Y-96520000D01*
X128270000Y-68120000D02*
X130254000Y-68120000D01*
X130254000Y-68120000D02*
X131064000Y-67310000D01*
X131064000Y-67310000D02*
X131064000Y-56134000D01*
X131064000Y-56134000D02*
X130810000Y-55880000D01*
X130810000Y-53340000D02*
X130810000Y-55880000D01*
X128270000Y-72120000D02*
X130286000Y-72120000D01*
X130286000Y-72120000D02*
X131064000Y-72898000D01*
X134112000Y-77216000D02*
X134112000Y-78994000D01*
X131064000Y-74168000D02*
X134112000Y-77216000D01*
X131064000Y-72898000D02*
X131064000Y-74168000D01*
X150170000Y-78120000D02*
X150058000Y-78232000D01*
X150058000Y-78232000D02*
X146812000Y-78232000D01*
X131238000Y-76120000D02*
X132588000Y-77470000D01*
X128270000Y-76120000D02*
X131238000Y-76120000D01*
D19*
G36*
X133114412Y-51062096D02*
X132843310Y-51714982D01*
X132842693Y-52421916D01*
X133112655Y-53075274D01*
X133612096Y-53575588D01*
X134264982Y-53846690D01*
X134971916Y-53847307D01*
X135625274Y-53577345D01*
X136125588Y-53077904D01*
X136396690Y-52425018D01*
X136397307Y-51718084D01*
X136127345Y-51064726D01*
X135830139Y-50767000D01*
X141030024Y-50767000D01*
X140734412Y-51062096D01*
X140463310Y-51714982D01*
X140462693Y-52421916D01*
X140732655Y-53075274D01*
X141232096Y-53575588D01*
X141884982Y-53846690D01*
X142591916Y-53847307D01*
X143245274Y-53577345D01*
X143277925Y-53544750D01*
X144423000Y-53544750D01*
X144423000Y-54544827D01*
X144503231Y-54738521D01*
X144651478Y-54886769D01*
X144748318Y-54926882D01*
X144692142Y-54983692D01*
X144456070Y-55553636D01*
X144556533Y-55807000D01*
X145977000Y-55807000D01*
X145977000Y-53413000D01*
X146123000Y-53413000D01*
X146123000Y-55807000D01*
X147543467Y-55807000D01*
X147643930Y-55553636D01*
X147407858Y-54983692D01*
X147351682Y-54926882D01*
X147448522Y-54886769D01*
X147596769Y-54738521D01*
X147677000Y-54544827D01*
X147677000Y-53544750D01*
X147545250Y-53413000D01*
X146123000Y-53413000D01*
X145977000Y-53413000D01*
X144554750Y-53413000D01*
X144423000Y-53544750D01*
X143277925Y-53544750D01*
X143745588Y-53077904D01*
X144016690Y-52425018D01*
X144016942Y-52135173D01*
X144423000Y-52135173D01*
X144423000Y-53135250D01*
X144554750Y-53267000D01*
X145977000Y-53267000D01*
X145977000Y-51844750D01*
X146123000Y-51844750D01*
X146123000Y-53267000D01*
X147545250Y-53267000D01*
X147677000Y-53135250D01*
X147677000Y-52135173D01*
X147596769Y-51941479D01*
X147448522Y-51793231D01*
X147254827Y-51713000D01*
X146254750Y-51713000D01*
X146123000Y-51844750D01*
X145977000Y-51844750D01*
X145845250Y-51713000D01*
X144845173Y-51713000D01*
X144651478Y-51793231D01*
X144503231Y-51941479D01*
X144423000Y-52135173D01*
X144016942Y-52135173D01*
X144017307Y-51718084D01*
X143747345Y-51064726D01*
X143450139Y-50767000D01*
X151070707Y-50767000D01*
X151867127Y-50925418D01*
X152492033Y-51342967D01*
X152909582Y-51967872D01*
X153068000Y-52764293D01*
X153068000Y-96460707D01*
X152909582Y-97257128D01*
X152492033Y-97882033D01*
X151867127Y-98299582D01*
X151070707Y-98458000D01*
X125789293Y-98458000D01*
X124992872Y-98299582D01*
X124367967Y-97882033D01*
X123950418Y-97257127D01*
X123792000Y-96460707D01*
X123792000Y-95420000D01*
X125362676Y-95420000D01*
X125362676Y-97620000D01*
X125399423Y-97815294D01*
X125514842Y-97994660D01*
X125690951Y-98114990D01*
X125900000Y-98157324D01*
X128100000Y-98157324D01*
X128295294Y-98120577D01*
X128474660Y-98005158D01*
X128590032Y-97836305D01*
X128917374Y-98055027D01*
X129540000Y-98178875D01*
X130162626Y-98055027D01*
X130690463Y-97702338D01*
X131043152Y-97174501D01*
X131132613Y-96724750D01*
X135803000Y-96724750D01*
X135803000Y-97274827D01*
X135883231Y-97468521D01*
X136031478Y-97616769D01*
X136225173Y-97697000D01*
X136875250Y-97697000D01*
X137007000Y-97565250D01*
X137007000Y-96593000D01*
X137153000Y-96593000D01*
X137153000Y-97565250D01*
X137284750Y-97697000D01*
X137934827Y-97697000D01*
X138128522Y-97616769D01*
X138276769Y-97468521D01*
X138357000Y-97274827D01*
X138357000Y-96724750D01*
X138225250Y-96593000D01*
X137153000Y-96593000D01*
X137007000Y-96593000D01*
X135934750Y-96593000D01*
X135803000Y-96724750D01*
X131132613Y-96724750D01*
X131167000Y-96551875D01*
X131167000Y-96488125D01*
X131043152Y-95865499D01*
X130976117Y-95765173D01*
X135803000Y-95765173D01*
X135803000Y-96315250D01*
X135934750Y-96447000D01*
X137007000Y-96447000D01*
X137007000Y-95474750D01*
X137153000Y-95474750D01*
X137153000Y-96447000D01*
X138225250Y-96447000D01*
X138357000Y-96315250D01*
X138357000Y-95870000D01*
X138492676Y-95870000D01*
X138492676Y-97170000D01*
X138529423Y-97365294D01*
X138644842Y-97544660D01*
X138820951Y-97664990D01*
X139030000Y-97707324D01*
X140530000Y-97707324D01*
X140725294Y-97670577D01*
X140904660Y-97555158D01*
X141024990Y-97379049D01*
X141051731Y-97247000D01*
X141326297Y-97247000D01*
X141566778Y-97346856D01*
X141895779Y-97347143D01*
X142199846Y-97221505D01*
X142432688Y-96989070D01*
X142558856Y-96685222D01*
X142559143Y-96356221D01*
X142433505Y-96052154D01*
X142201070Y-95819312D01*
X141897222Y-95693144D01*
X141568221Y-95692857D01*
X141325857Y-95793000D01*
X141052835Y-95793000D01*
X141030577Y-95674706D01*
X140915158Y-95495340D01*
X140739049Y-95375010D01*
X140530000Y-95332676D01*
X139030000Y-95332676D01*
X138834706Y-95369423D01*
X138655340Y-95484842D01*
X138535010Y-95660951D01*
X138492676Y-95870000D01*
X138357000Y-95870000D01*
X138357000Y-95765173D01*
X138276769Y-95571479D01*
X138128522Y-95423231D01*
X137934827Y-95343000D01*
X137284750Y-95343000D01*
X137153000Y-95474750D01*
X137007000Y-95474750D01*
X136875250Y-95343000D01*
X136225173Y-95343000D01*
X136031478Y-95423231D01*
X135883231Y-95571479D01*
X135803000Y-95765173D01*
X130976117Y-95765173D01*
X130690463Y-95337662D01*
X130162626Y-94984973D01*
X129540000Y-94861125D01*
X128917374Y-94984973D01*
X128587952Y-95205086D01*
X128485158Y-95045340D01*
X128309049Y-94925010D01*
X128100000Y-94882676D01*
X127727000Y-94882676D01*
X127727000Y-93877703D01*
X127826856Y-93637222D01*
X127827143Y-93308221D01*
X127701505Y-93004154D01*
X127469070Y-92771312D01*
X127165222Y-92645144D01*
X126836221Y-92644857D01*
X126532154Y-92770495D01*
X126299312Y-93002930D01*
X126173144Y-93306778D01*
X126172857Y-93635779D01*
X126273000Y-93878143D01*
X126273000Y-94882676D01*
X125900000Y-94882676D01*
X125704706Y-94919423D01*
X125525340Y-95034842D01*
X125405010Y-95210951D01*
X125362676Y-95420000D01*
X123792000Y-95420000D01*
X123792000Y-90393422D01*
X125522333Y-90393422D01*
X125563184Y-90545836D01*
X125818921Y-90979842D01*
X126221278Y-91282945D01*
X126709000Y-91409000D01*
X128197000Y-91409000D01*
X128197000Y-90193000D01*
X128343000Y-90193000D01*
X128343000Y-91409000D01*
X129831000Y-91409000D01*
X130318722Y-91282945D01*
X130721079Y-90979842D01*
X130910962Y-90657595D01*
X130981000Y-90657595D01*
X130981000Y-93742405D01*
X131079119Y-94235684D01*
X131358539Y-94653866D01*
X131776721Y-94933286D01*
X132270000Y-95031405D01*
X132763279Y-94933286D01*
X133181461Y-94653866D01*
X133270000Y-94521358D01*
X133358539Y-94653866D01*
X133776721Y-94933286D01*
X134270000Y-95031405D01*
X134763279Y-94933286D01*
X135181461Y-94653866D01*
X135270000Y-94521358D01*
X135358539Y-94653866D01*
X135776721Y-94933286D01*
X136270000Y-95031405D01*
X136763279Y-94933286D01*
X137181461Y-94653866D01*
X137270000Y-94521358D01*
X137358539Y-94653866D01*
X137776721Y-94933286D01*
X138270000Y-95031405D01*
X138763279Y-94933286D01*
X139181461Y-94653866D01*
X139270000Y-94521358D01*
X139358539Y-94653866D01*
X139776721Y-94933286D01*
X140270000Y-95031405D01*
X140763279Y-94933286D01*
X141181461Y-94653866D01*
X141270000Y-94521358D01*
X141358539Y-94653866D01*
X141776721Y-94933286D01*
X142270000Y-95031405D01*
X142763279Y-94933286D01*
X143181461Y-94653866D01*
X143270000Y-94521358D01*
X143358539Y-94653866D01*
X143776721Y-94933286D01*
X144270000Y-95031405D01*
X144763279Y-94933286D01*
X145181461Y-94653866D01*
X145270000Y-94521358D01*
X145358539Y-94653866D01*
X145776721Y-94933286D01*
X145949694Y-94967692D01*
X145845340Y-95034842D01*
X145725010Y-95210951D01*
X145682676Y-95420000D01*
X145682676Y-97620000D01*
X145719423Y-97815294D01*
X145834842Y-97994660D01*
X146010951Y-98114990D01*
X146220000Y-98157324D01*
X148420000Y-98157324D01*
X148615294Y-98120577D01*
X148794660Y-98005158D01*
X148910032Y-97836305D01*
X149237374Y-98055027D01*
X149860000Y-98178875D01*
X150482626Y-98055027D01*
X151010463Y-97702338D01*
X151363152Y-97174501D01*
X151487000Y-96551875D01*
X151487000Y-96488125D01*
X151363152Y-95865499D01*
X151010463Y-95337662D01*
X150587000Y-95054713D01*
X150587000Y-94742000D01*
X150531660Y-94463789D01*
X150374067Y-94227933D01*
X150374064Y-94227931D01*
X149390941Y-93244807D01*
X149291505Y-93004154D01*
X149059070Y-92771312D01*
X148755222Y-92645144D01*
X148426221Y-92644857D01*
X148122154Y-92770495D01*
X147889312Y-93002930D01*
X147763144Y-93306778D01*
X147762857Y-93635779D01*
X147888495Y-93939846D01*
X148120930Y-94172688D01*
X148363120Y-94273253D01*
X149133000Y-95043133D01*
X149133000Y-95054713D01*
X148907952Y-95205086D01*
X148805158Y-95045340D01*
X148629049Y-94925010D01*
X148420000Y-94882676D01*
X146839022Y-94882676D01*
X147181461Y-94653866D01*
X147460881Y-94235684D01*
X147559000Y-93742405D01*
X147559000Y-90708443D01*
X147718921Y-90979842D01*
X148121278Y-91282945D01*
X148609000Y-91409000D01*
X150097000Y-91409000D01*
X150097000Y-90193000D01*
X150243000Y-90193000D01*
X150243000Y-91409000D01*
X151731000Y-91409000D01*
X152218722Y-91282945D01*
X152621079Y-90979842D01*
X152876816Y-90545836D01*
X152917667Y-90393422D01*
X152812945Y-90193000D01*
X150243000Y-90193000D01*
X150097000Y-90193000D01*
X150077000Y-90193000D01*
X150077000Y-90047000D01*
X150097000Y-90047000D01*
X150097000Y-90027000D01*
X150243000Y-90027000D01*
X150243000Y-90047000D01*
X152812945Y-90047000D01*
X152917667Y-89846578D01*
X152876816Y-89694164D01*
X152621079Y-89260158D01*
X152461504Y-89139947D01*
X152623866Y-89031461D01*
X152903286Y-88613279D01*
X153001405Y-88120000D01*
X152903286Y-87626721D01*
X152623866Y-87208539D01*
X152491358Y-87120000D01*
X152623866Y-87031461D01*
X152903286Y-86613279D01*
X153001405Y-86120000D01*
X152903286Y-85626721D01*
X152623866Y-85208539D01*
X152491358Y-85120000D01*
X152623866Y-85031461D01*
X152903286Y-84613279D01*
X153001405Y-84120000D01*
X152903286Y-83626721D01*
X152623866Y-83208539D01*
X152491358Y-83120000D01*
X152623866Y-83031461D01*
X152903286Y-82613279D01*
X153001405Y-82120000D01*
X152903286Y-81626721D01*
X152623866Y-81208539D01*
X152491358Y-81120000D01*
X152623866Y-81031461D01*
X152903286Y-80613279D01*
X153001405Y-80120000D01*
X152903286Y-79626721D01*
X152623866Y-79208539D01*
X152491358Y-79120000D01*
X152623866Y-79031461D01*
X152903286Y-78613279D01*
X153001405Y-78120000D01*
X152903286Y-77626721D01*
X152623866Y-77208539D01*
X152491358Y-77120000D01*
X152623866Y-77031461D01*
X152903286Y-76613279D01*
X153001405Y-76120000D01*
X152903286Y-75626721D01*
X152623866Y-75208539D01*
X152491358Y-75120000D01*
X152623866Y-75031461D01*
X152903286Y-74613279D01*
X153001405Y-74120000D01*
X152903286Y-73626721D01*
X152623866Y-73208539D01*
X152491358Y-73120000D01*
X152623866Y-73031461D01*
X152903286Y-72613279D01*
X153001405Y-72120000D01*
X152903286Y-71626721D01*
X152623866Y-71208539D01*
X152491358Y-71120000D01*
X152623866Y-71031461D01*
X152903286Y-70613279D01*
X153001405Y-70120000D01*
X152903286Y-69626721D01*
X152623866Y-69208539D01*
X152491358Y-69120000D01*
X152623866Y-69031461D01*
X152903286Y-68613279D01*
X153001405Y-68120000D01*
X152903286Y-67626721D01*
X152623866Y-67208539D01*
X152491358Y-67120000D01*
X152623866Y-67031461D01*
X152903286Y-66613279D01*
X153001405Y-66120000D01*
X152903286Y-65626721D01*
X152623866Y-65208539D01*
X152461504Y-65100053D01*
X152621079Y-64979842D01*
X152876816Y-64545836D01*
X152917667Y-64393422D01*
X152812945Y-64193000D01*
X150243000Y-64193000D01*
X150243000Y-64213000D01*
X150097000Y-64213000D01*
X150097000Y-64193000D01*
X150077000Y-64193000D01*
X150077000Y-64047000D01*
X150097000Y-64047000D01*
X150097000Y-64027000D01*
X150243000Y-64027000D01*
X150243000Y-64047000D01*
X152812945Y-64047000D01*
X152917667Y-63846578D01*
X152876816Y-63694164D01*
X152621079Y-63260158D01*
X152461504Y-63139947D01*
X152623866Y-63031461D01*
X152903286Y-62613279D01*
X153001405Y-62120000D01*
X152903286Y-61626721D01*
X152623866Y-61208539D01*
X152491358Y-61120000D01*
X152623866Y-61031461D01*
X152903286Y-60613279D01*
X153001405Y-60120000D01*
X152903286Y-59626721D01*
X152623866Y-59208539D01*
X152205684Y-58929119D01*
X151712405Y-58831000D01*
X148627595Y-58831000D01*
X148134316Y-58929119D01*
X147716134Y-59208539D01*
X147436714Y-59626721D01*
X147338595Y-60120000D01*
X147436714Y-60613279D01*
X147716134Y-61031461D01*
X147848642Y-61120000D01*
X147716134Y-61208539D01*
X147436714Y-61626721D01*
X147338595Y-62120000D01*
X147436714Y-62613279D01*
X147716134Y-63031461D01*
X147878496Y-63139947D01*
X147718921Y-63260158D01*
X147463184Y-63694164D01*
X147447000Y-63754546D01*
X147447000Y-63500000D01*
X147438315Y-63453841D01*
X147411035Y-63411447D01*
X147369410Y-63383006D01*
X147320000Y-63373000D01*
X140970000Y-63373000D01*
X140923841Y-63381685D01*
X140881447Y-63408965D01*
X140853006Y-63450590D01*
X140843000Y-63500000D01*
X140843000Y-68580000D01*
X140851685Y-68626159D01*
X140878965Y-68668553D01*
X140920590Y-68696994D01*
X140970000Y-68707000D01*
X147320000Y-68707000D01*
X147366159Y-68698315D01*
X147408553Y-68671035D01*
X147436994Y-68629410D01*
X147439436Y-68617352D01*
X147716134Y-69031461D01*
X147848642Y-69120000D01*
X147716134Y-69208539D01*
X147436714Y-69626721D01*
X147338595Y-70120000D01*
X147436714Y-70613279D01*
X147716134Y-71031461D01*
X147848642Y-71120000D01*
X147716134Y-71208539D01*
X147436714Y-71626721D01*
X147338595Y-72120000D01*
X147436714Y-72613279D01*
X147716134Y-73031461D01*
X147848642Y-73120000D01*
X147716134Y-73208539D01*
X147436714Y-73626721D01*
X147338595Y-74120000D01*
X147436714Y-74613279D01*
X147716134Y-75031461D01*
X147848642Y-75120000D01*
X147716134Y-75208539D01*
X147436714Y-75626721D01*
X147338595Y-76120000D01*
X147436714Y-76613279D01*
X147716134Y-77031461D01*
X147848642Y-77120000D01*
X147716134Y-77208539D01*
X147518045Y-77505000D01*
X147217703Y-77505000D01*
X146977222Y-77405144D01*
X146648221Y-77404857D01*
X146344154Y-77530495D01*
X146111312Y-77762930D01*
X145985144Y-78066778D01*
X145984857Y-78395779D01*
X146110495Y-78699846D01*
X146342930Y-78932688D01*
X146646778Y-79058856D01*
X146975779Y-79059143D01*
X147218143Y-78959000D01*
X147667717Y-78959000D01*
X147716134Y-79031461D01*
X147848642Y-79120000D01*
X147716134Y-79208539D01*
X147436714Y-79626721D01*
X147338595Y-80120000D01*
X147436714Y-80613279D01*
X147716134Y-81031461D01*
X147848642Y-81120000D01*
X147716134Y-81208539D01*
X147436714Y-81626721D01*
X147338595Y-82120000D01*
X147436714Y-82613279D01*
X147716134Y-83031461D01*
X147848642Y-83120000D01*
X147716134Y-83208539D01*
X147436714Y-83626721D01*
X147338595Y-84120000D01*
X147436714Y-84613279D01*
X147716134Y-85031461D01*
X147848642Y-85120000D01*
X147716134Y-85208539D01*
X147436714Y-85626721D01*
X147338595Y-86120000D01*
X147436714Y-86613279D01*
X147716134Y-87031461D01*
X147848642Y-87120000D01*
X147716134Y-87208539D01*
X147436714Y-87626721D01*
X147338595Y-88120000D01*
X147436714Y-88613279D01*
X147716134Y-89031461D01*
X147878496Y-89139947D01*
X147718921Y-89260158D01*
X147463184Y-89694164D01*
X147422333Y-89846578D01*
X147527054Y-90046998D01*
X147393000Y-90046998D01*
X147393000Y-90062725D01*
X147181461Y-89746134D01*
X146763279Y-89466714D01*
X146270000Y-89368595D01*
X145776721Y-89466714D01*
X145358539Y-89746134D01*
X145270000Y-89878642D01*
X145181461Y-89746134D01*
X144763279Y-89466714D01*
X144270000Y-89368595D01*
X143776721Y-89466714D01*
X143358539Y-89746134D01*
X143270000Y-89878642D01*
X143181461Y-89746134D01*
X142763279Y-89466714D01*
X142270000Y-89368595D01*
X141776721Y-89466714D01*
X141358539Y-89746134D01*
X141270000Y-89878642D01*
X141181461Y-89746134D01*
X140763279Y-89466714D01*
X140270000Y-89368595D01*
X139776721Y-89466714D01*
X139358539Y-89746134D01*
X139270000Y-89878642D01*
X139181461Y-89746134D01*
X138763279Y-89466714D01*
X138270000Y-89368595D01*
X137776721Y-89466714D01*
X137358539Y-89746134D01*
X137270000Y-89878642D01*
X137181461Y-89746134D01*
X136763279Y-89466714D01*
X136270000Y-89368595D01*
X135776721Y-89466714D01*
X135358539Y-89746134D01*
X135270000Y-89878642D01*
X135181461Y-89746134D01*
X134763279Y-89466714D01*
X134270000Y-89368595D01*
X133776721Y-89466714D01*
X133358539Y-89746134D01*
X133270000Y-89878642D01*
X133181461Y-89746134D01*
X132763279Y-89466714D01*
X132270000Y-89368595D01*
X131776721Y-89466714D01*
X131358539Y-89746134D01*
X131079119Y-90164316D01*
X130981000Y-90657595D01*
X130910962Y-90657595D01*
X130976816Y-90545836D01*
X131017667Y-90393422D01*
X130912945Y-90193000D01*
X128343000Y-90193000D01*
X128197000Y-90193000D01*
X125627055Y-90193000D01*
X125522333Y-90393422D01*
X123792000Y-90393422D01*
X123792000Y-88120000D01*
X125438595Y-88120000D01*
X125536714Y-88613279D01*
X125816134Y-89031461D01*
X125978496Y-89139947D01*
X125818921Y-89260158D01*
X125563184Y-89694164D01*
X125522333Y-89846578D01*
X125627055Y-90047000D01*
X128197000Y-90047000D01*
X128197000Y-90027000D01*
X128343000Y-90027000D01*
X128343000Y-90047000D01*
X130912945Y-90047000D01*
X131017667Y-89846578D01*
X130976816Y-89694164D01*
X130721079Y-89260158D01*
X130561504Y-89139947D01*
X130723866Y-89031461D01*
X131003286Y-88613279D01*
X131101405Y-88120000D01*
X131003286Y-87626721D01*
X130723866Y-87208539D01*
X130561504Y-87100053D01*
X130721079Y-86979842D01*
X130976816Y-86545836D01*
X131017667Y-86393422D01*
X130912945Y-86193000D01*
X128343000Y-86193000D01*
X128343000Y-86213000D01*
X128197000Y-86213000D01*
X128197000Y-86193000D01*
X125627055Y-86193000D01*
X125522333Y-86393422D01*
X125563184Y-86545836D01*
X125818921Y-86979842D01*
X125978496Y-87100053D01*
X125816134Y-87208539D01*
X125536714Y-87626721D01*
X125438595Y-88120000D01*
X123792000Y-88120000D01*
X123792000Y-68120000D01*
X125438595Y-68120000D01*
X125536714Y-68613279D01*
X125816134Y-69031461D01*
X125948642Y-69120000D01*
X125816134Y-69208539D01*
X125536714Y-69626721D01*
X125438595Y-70120000D01*
X125536714Y-70613279D01*
X125816134Y-71031461D01*
X125948642Y-71120000D01*
X125816134Y-71208539D01*
X125536714Y-71626721D01*
X125438595Y-72120000D01*
X125536714Y-72613279D01*
X125816134Y-73031461D01*
X125948642Y-73120000D01*
X125816134Y-73208539D01*
X125536714Y-73626721D01*
X125438595Y-74120000D01*
X125536714Y-74613279D01*
X125816134Y-75031461D01*
X125948642Y-75120000D01*
X125816134Y-75208539D01*
X125536714Y-75626721D01*
X125438595Y-76120000D01*
X125536714Y-76613279D01*
X125816134Y-77031461D01*
X125948642Y-77120000D01*
X125816134Y-77208539D01*
X125536714Y-77626721D01*
X125438595Y-78120000D01*
X125536714Y-78613279D01*
X125816134Y-79031461D01*
X125948642Y-79120000D01*
X125816134Y-79208539D01*
X125536714Y-79626721D01*
X125438595Y-80120000D01*
X125536714Y-80613279D01*
X125816134Y-81031461D01*
X125948642Y-81120000D01*
X125816134Y-81208539D01*
X125536714Y-81626721D01*
X125438595Y-82120000D01*
X125536714Y-82613279D01*
X125816134Y-83031461D01*
X125948642Y-83120000D01*
X125816134Y-83208539D01*
X125536714Y-83626721D01*
X125438595Y-84120000D01*
X125536714Y-84613279D01*
X125816134Y-85031461D01*
X125978496Y-85139947D01*
X125818921Y-85260158D01*
X125563184Y-85694164D01*
X125522333Y-85846578D01*
X125627055Y-86047000D01*
X128197000Y-86047000D01*
X128197000Y-86027000D01*
X128343000Y-86027000D01*
X128343000Y-86047000D01*
X130912945Y-86047000D01*
X131017667Y-85846578D01*
X130976816Y-85694164D01*
X130721079Y-85260158D01*
X130561504Y-85139947D01*
X130723866Y-85031461D01*
X131003286Y-84613279D01*
X131101405Y-84120000D01*
X131003286Y-83626721D01*
X130723866Y-83208539D01*
X130591358Y-83120000D01*
X130723866Y-83031461D01*
X131003286Y-82613279D01*
X131101405Y-82120000D01*
X131003286Y-81626721D01*
X130723866Y-81208539D01*
X130591358Y-81120000D01*
X130723866Y-81031461D01*
X131003286Y-80613279D01*
X131101405Y-80120000D01*
X131003286Y-79626721D01*
X130723866Y-79208539D01*
X130591358Y-79120000D01*
X130723866Y-79031461D01*
X131003286Y-78613279D01*
X131101405Y-78120000D01*
X131003286Y-77626721D01*
X130723866Y-77208539D01*
X130591358Y-77120000D01*
X130723866Y-77031461D01*
X130847119Y-76847000D01*
X130936866Y-76847000D01*
X131787059Y-77697192D01*
X131886495Y-77937846D01*
X132118930Y-78170688D01*
X132422778Y-78296856D01*
X132751779Y-78297143D01*
X133055846Y-78171505D01*
X133288688Y-77939070D01*
X133385000Y-77707124D01*
X133385000Y-78588297D01*
X133285144Y-78828778D01*
X133284857Y-79157779D01*
X133410495Y-79461846D01*
X133642930Y-79694688D01*
X133946778Y-79820856D01*
X134275779Y-79821143D01*
X134579846Y-79695505D01*
X134812688Y-79463070D01*
X134938856Y-79159222D01*
X134939143Y-78830221D01*
X134839000Y-78587857D01*
X134839000Y-77216005D01*
X134839001Y-77216000D01*
X134783660Y-76937790D01*
X134783660Y-76937789D01*
X134626067Y-76701933D01*
X131791000Y-73866866D01*
X131791000Y-72898000D01*
X131735660Y-72619789D01*
X131578067Y-72383933D01*
X131048584Y-71854450D01*
X131003286Y-71626721D01*
X130723866Y-71208539D01*
X130591358Y-71120000D01*
X130723866Y-71031461D01*
X130814477Y-70895851D01*
X130898778Y-70930856D01*
X131227779Y-70931143D01*
X131531846Y-70805505D01*
X131764688Y-70573070D01*
X131890856Y-70269222D01*
X131891143Y-69940221D01*
X131765505Y-69636154D01*
X131601261Y-69471622D01*
X132442666Y-69471622D01*
X132735416Y-70180132D01*
X133277017Y-70722678D01*
X133985014Y-71016665D01*
X134751622Y-71017334D01*
X135460132Y-70724584D01*
X136002678Y-70182983D01*
X136296665Y-69474986D01*
X136297334Y-68708378D01*
X136004584Y-67999868D01*
X135462983Y-67457322D01*
X134754986Y-67163335D01*
X133988378Y-67162666D01*
X133279868Y-67455416D01*
X132737322Y-67997017D01*
X132443335Y-68705014D01*
X132442666Y-69471622D01*
X131601261Y-69471622D01*
X131533070Y-69403312D01*
X131229222Y-69277144D01*
X130900221Y-69276857D01*
X130797793Y-69319179D01*
X130723866Y-69208539D01*
X130591358Y-69120000D01*
X130723866Y-69031461D01*
X131003286Y-68613279D01*
X131056530Y-68345604D01*
X131578067Y-67824067D01*
X131735660Y-67588211D01*
X131762075Y-67455416D01*
X131791001Y-67310000D01*
X131791000Y-67309995D01*
X131791000Y-58388481D01*
X133484757Y-58388481D01*
X133614966Y-58657506D01*
X134268367Y-58927364D01*
X134975301Y-58926634D01*
X135625034Y-58657506D01*
X135755243Y-58388481D01*
X134620000Y-57253238D01*
X133484757Y-58388481D01*
X131791000Y-58388481D01*
X131791000Y-57164993D01*
X131992338Y-57030463D01*
X132147419Y-56798367D01*
X132842636Y-56798367D01*
X132843366Y-57505301D01*
X133112494Y-58155034D01*
X133381519Y-58285243D01*
X134516762Y-57150000D01*
X134723238Y-57150000D01*
X135858481Y-58285243D01*
X136127506Y-58155034D01*
X136397247Y-57501916D01*
X140462693Y-57501916D01*
X140732655Y-58155274D01*
X141232096Y-58655588D01*
X141884982Y-58926690D01*
X142591916Y-58927307D01*
X143245274Y-58657345D01*
X143745588Y-58157904D01*
X144016690Y-57505018D01*
X144017307Y-56798084D01*
X143772814Y-56206364D01*
X144456070Y-56206364D01*
X144692142Y-56776308D01*
X145138505Y-57227710D01*
X145723635Y-57473936D01*
X145977000Y-57373617D01*
X145977000Y-55953000D01*
X146123000Y-55953000D01*
X146123000Y-57373617D01*
X146376365Y-57473936D01*
X146961495Y-57227710D01*
X147407858Y-56776308D01*
X147643930Y-56206364D01*
X147543467Y-55953000D01*
X146123000Y-55953000D01*
X145977000Y-55953000D01*
X144556533Y-55953000D01*
X144456070Y-56206364D01*
X143772814Y-56206364D01*
X143747345Y-56144726D01*
X143247904Y-55644412D01*
X142595018Y-55373310D01*
X141888084Y-55372693D01*
X141234726Y-55642655D01*
X140734412Y-56142096D01*
X140463310Y-56794982D01*
X140462693Y-57501916D01*
X136397247Y-57501916D01*
X136397364Y-57501633D01*
X136396634Y-56794699D01*
X136127506Y-56144966D01*
X135858481Y-56014757D01*
X134723238Y-57150000D01*
X134516762Y-57150000D01*
X133381519Y-56014757D01*
X133112494Y-56144966D01*
X132842636Y-56798367D01*
X132147419Y-56798367D01*
X132345027Y-56502626D01*
X132462605Y-55911519D01*
X133484757Y-55911519D01*
X134620000Y-57046762D01*
X135755243Y-55911519D01*
X135625034Y-55642494D01*
X134971633Y-55372636D01*
X134264699Y-55373366D01*
X133614966Y-55642494D01*
X133484757Y-55911519D01*
X132462605Y-55911519D01*
X132468875Y-55880000D01*
X132345027Y-55257374D01*
X132124914Y-54927952D01*
X132284660Y-54825158D01*
X132404990Y-54649049D01*
X132447324Y-54440000D01*
X132447324Y-52240000D01*
X132410577Y-52044706D01*
X132295158Y-51865340D01*
X132119049Y-51745010D01*
X131910000Y-51702676D01*
X129710000Y-51702676D01*
X129514706Y-51739423D01*
X129335340Y-51854842D01*
X129215010Y-52030951D01*
X129172676Y-52240000D01*
X129172676Y-54440000D01*
X129209423Y-54635294D01*
X129324842Y-54814660D01*
X129493695Y-54930032D01*
X129274973Y-55257374D01*
X129151125Y-55880000D01*
X129274973Y-56502626D01*
X129627662Y-57030463D01*
X130155499Y-57383152D01*
X130337000Y-57419255D01*
X130337000Y-64970824D01*
X130318722Y-64957055D01*
X129831000Y-64831000D01*
X128343000Y-64831000D01*
X128343000Y-66047000D01*
X128363000Y-66047000D01*
X128363000Y-66193000D01*
X128343000Y-66193000D01*
X128343000Y-66213000D01*
X128197000Y-66213000D01*
X128197000Y-66193000D01*
X125627055Y-66193000D01*
X125522333Y-66393422D01*
X125563184Y-66545836D01*
X125818921Y-66979842D01*
X125978496Y-67100053D01*
X125816134Y-67208539D01*
X125536714Y-67626721D01*
X125438595Y-68120000D01*
X123792000Y-68120000D01*
X123792000Y-65846578D01*
X125522333Y-65846578D01*
X125627055Y-66047000D01*
X128197000Y-66047000D01*
X128197000Y-64831000D01*
X126709000Y-64831000D01*
X126221278Y-64957055D01*
X125818921Y-65260158D01*
X125563184Y-65694164D01*
X125522333Y-65846578D01*
X123792000Y-65846578D01*
X123792000Y-52764293D01*
X123950418Y-51967873D01*
X124367967Y-51342967D01*
X124992872Y-50925418D01*
X125789293Y-50767000D01*
X133410024Y-50767000D01*
X133114412Y-51062096D01*
X133114412Y-51062096D01*
G37*
X133114412Y-51062096D02*
X132843310Y-51714982D01*
X132842693Y-52421916D01*
X133112655Y-53075274D01*
X133612096Y-53575588D01*
X134264982Y-53846690D01*
X134971916Y-53847307D01*
X135625274Y-53577345D01*
X136125588Y-53077904D01*
X136396690Y-52425018D01*
X136397307Y-51718084D01*
X136127345Y-51064726D01*
X135830139Y-50767000D01*
X141030024Y-50767000D01*
X140734412Y-51062096D01*
X140463310Y-51714982D01*
X140462693Y-52421916D01*
X140732655Y-53075274D01*
X141232096Y-53575588D01*
X141884982Y-53846690D01*
X142591916Y-53847307D01*
X143245274Y-53577345D01*
X143277925Y-53544750D01*
X144423000Y-53544750D01*
X144423000Y-54544827D01*
X144503231Y-54738521D01*
X144651478Y-54886769D01*
X144748318Y-54926882D01*
X144692142Y-54983692D01*
X144456070Y-55553636D01*
X144556533Y-55807000D01*
X145977000Y-55807000D01*
X145977000Y-53413000D01*
X146123000Y-53413000D01*
X146123000Y-55807000D01*
X147543467Y-55807000D01*
X147643930Y-55553636D01*
X147407858Y-54983692D01*
X147351682Y-54926882D01*
X147448522Y-54886769D01*
X147596769Y-54738521D01*
X147677000Y-54544827D01*
X147677000Y-53544750D01*
X147545250Y-53413000D01*
X146123000Y-53413000D01*
X145977000Y-53413000D01*
X144554750Y-53413000D01*
X144423000Y-53544750D01*
X143277925Y-53544750D01*
X143745588Y-53077904D01*
X144016690Y-52425018D01*
X144016942Y-52135173D01*
X144423000Y-52135173D01*
X144423000Y-53135250D01*
X144554750Y-53267000D01*
X145977000Y-53267000D01*
X145977000Y-51844750D01*
X146123000Y-51844750D01*
X146123000Y-53267000D01*
X147545250Y-53267000D01*
X147677000Y-53135250D01*
X147677000Y-52135173D01*
X147596769Y-51941479D01*
X147448522Y-51793231D01*
X147254827Y-51713000D01*
X146254750Y-51713000D01*
X146123000Y-51844750D01*
X145977000Y-51844750D01*
X145845250Y-51713000D01*
X144845173Y-51713000D01*
X144651478Y-51793231D01*
X144503231Y-51941479D01*
X144423000Y-52135173D01*
X144016942Y-52135173D01*
X144017307Y-51718084D01*
X143747345Y-51064726D01*
X143450139Y-50767000D01*
X151070707Y-50767000D01*
X151867127Y-50925418D01*
X152492033Y-51342967D01*
X152909582Y-51967872D01*
X153068000Y-52764293D01*
X153068000Y-96460707D01*
X152909582Y-97257128D01*
X152492033Y-97882033D01*
X151867127Y-98299582D01*
X151070707Y-98458000D01*
X125789293Y-98458000D01*
X124992872Y-98299582D01*
X124367967Y-97882033D01*
X123950418Y-97257127D01*
X123792000Y-96460707D01*
X123792000Y-95420000D01*
X125362676Y-95420000D01*
X125362676Y-97620000D01*
X125399423Y-97815294D01*
X125514842Y-97994660D01*
X125690951Y-98114990D01*
X125900000Y-98157324D01*
X128100000Y-98157324D01*
X128295294Y-98120577D01*
X128474660Y-98005158D01*
X128590032Y-97836305D01*
X128917374Y-98055027D01*
X129540000Y-98178875D01*
X130162626Y-98055027D01*
X130690463Y-97702338D01*
X131043152Y-97174501D01*
X131132613Y-96724750D01*
X135803000Y-96724750D01*
X135803000Y-97274827D01*
X135883231Y-97468521D01*
X136031478Y-97616769D01*
X136225173Y-97697000D01*
X136875250Y-97697000D01*
X137007000Y-97565250D01*
X137007000Y-96593000D01*
X137153000Y-96593000D01*
X137153000Y-97565250D01*
X137284750Y-97697000D01*
X137934827Y-97697000D01*
X138128522Y-97616769D01*
X138276769Y-97468521D01*
X138357000Y-97274827D01*
X138357000Y-96724750D01*
X138225250Y-96593000D01*
X137153000Y-96593000D01*
X137007000Y-96593000D01*
X135934750Y-96593000D01*
X135803000Y-96724750D01*
X131132613Y-96724750D01*
X131167000Y-96551875D01*
X131167000Y-96488125D01*
X131043152Y-95865499D01*
X130976117Y-95765173D01*
X135803000Y-95765173D01*
X135803000Y-96315250D01*
X135934750Y-96447000D01*
X137007000Y-96447000D01*
X137007000Y-95474750D01*
X137153000Y-95474750D01*
X137153000Y-96447000D01*
X138225250Y-96447000D01*
X138357000Y-96315250D01*
X138357000Y-95870000D01*
X138492676Y-95870000D01*
X138492676Y-97170000D01*
X138529423Y-97365294D01*
X138644842Y-97544660D01*
X138820951Y-97664990D01*
X139030000Y-97707324D01*
X140530000Y-97707324D01*
X140725294Y-97670577D01*
X140904660Y-97555158D01*
X141024990Y-97379049D01*
X141051731Y-97247000D01*
X141326297Y-97247000D01*
X141566778Y-97346856D01*
X141895779Y-97347143D01*
X142199846Y-97221505D01*
X142432688Y-96989070D01*
X142558856Y-96685222D01*
X142559143Y-96356221D01*
X142433505Y-96052154D01*
X142201070Y-95819312D01*
X141897222Y-95693144D01*
X141568221Y-95692857D01*
X141325857Y-95793000D01*
X141052835Y-95793000D01*
X141030577Y-95674706D01*
X140915158Y-95495340D01*
X140739049Y-95375010D01*
X140530000Y-95332676D01*
X139030000Y-95332676D01*
X138834706Y-95369423D01*
X138655340Y-95484842D01*
X138535010Y-95660951D01*
X138492676Y-95870000D01*
X138357000Y-95870000D01*
X138357000Y-95765173D01*
X138276769Y-95571479D01*
X138128522Y-95423231D01*
X137934827Y-95343000D01*
X137284750Y-95343000D01*
X137153000Y-95474750D01*
X137007000Y-95474750D01*
X136875250Y-95343000D01*
X136225173Y-95343000D01*
X136031478Y-95423231D01*
X135883231Y-95571479D01*
X135803000Y-95765173D01*
X130976117Y-95765173D01*
X130690463Y-95337662D01*
X130162626Y-94984973D01*
X129540000Y-94861125D01*
X128917374Y-94984973D01*
X128587952Y-95205086D01*
X128485158Y-95045340D01*
X128309049Y-94925010D01*
X128100000Y-94882676D01*
X127727000Y-94882676D01*
X127727000Y-93877703D01*
X127826856Y-93637222D01*
X127827143Y-93308221D01*
X127701505Y-93004154D01*
X127469070Y-92771312D01*
X127165222Y-92645144D01*
X126836221Y-92644857D01*
X126532154Y-92770495D01*
X126299312Y-93002930D01*
X126173144Y-93306778D01*
X126172857Y-93635779D01*
X126273000Y-93878143D01*
X126273000Y-94882676D01*
X125900000Y-94882676D01*
X125704706Y-94919423D01*
X125525340Y-95034842D01*
X125405010Y-95210951D01*
X125362676Y-95420000D01*
X123792000Y-95420000D01*
X123792000Y-90393422D01*
X125522333Y-90393422D01*
X125563184Y-90545836D01*
X125818921Y-90979842D01*
X126221278Y-91282945D01*
X126709000Y-91409000D01*
X128197000Y-91409000D01*
X128197000Y-90193000D01*
X128343000Y-90193000D01*
X128343000Y-91409000D01*
X129831000Y-91409000D01*
X130318722Y-91282945D01*
X130721079Y-90979842D01*
X130910962Y-90657595D01*
X130981000Y-90657595D01*
X130981000Y-93742405D01*
X131079119Y-94235684D01*
X131358539Y-94653866D01*
X131776721Y-94933286D01*
X132270000Y-95031405D01*
X132763279Y-94933286D01*
X133181461Y-94653866D01*
X133270000Y-94521358D01*
X133358539Y-94653866D01*
X133776721Y-94933286D01*
X134270000Y-95031405D01*
X134763279Y-94933286D01*
X135181461Y-94653866D01*
X135270000Y-94521358D01*
X135358539Y-94653866D01*
X135776721Y-94933286D01*
X136270000Y-95031405D01*
X136763279Y-94933286D01*
X137181461Y-94653866D01*
X137270000Y-94521358D01*
X137358539Y-94653866D01*
X137776721Y-94933286D01*
X138270000Y-95031405D01*
X138763279Y-94933286D01*
X139181461Y-94653866D01*
X139270000Y-94521358D01*
X139358539Y-94653866D01*
X139776721Y-94933286D01*
X140270000Y-95031405D01*
X140763279Y-94933286D01*
X141181461Y-94653866D01*
X141270000Y-94521358D01*
X141358539Y-94653866D01*
X141776721Y-94933286D01*
X142270000Y-95031405D01*
X142763279Y-94933286D01*
X143181461Y-94653866D01*
X143270000Y-94521358D01*
X143358539Y-94653866D01*
X143776721Y-94933286D01*
X144270000Y-95031405D01*
X144763279Y-94933286D01*
X145181461Y-94653866D01*
X145270000Y-94521358D01*
X145358539Y-94653866D01*
X145776721Y-94933286D01*
X145949694Y-94967692D01*
X145845340Y-95034842D01*
X145725010Y-95210951D01*
X145682676Y-95420000D01*
X145682676Y-97620000D01*
X145719423Y-97815294D01*
X145834842Y-97994660D01*
X146010951Y-98114990D01*
X146220000Y-98157324D01*
X148420000Y-98157324D01*
X148615294Y-98120577D01*
X148794660Y-98005158D01*
X148910032Y-97836305D01*
X149237374Y-98055027D01*
X149860000Y-98178875D01*
X150482626Y-98055027D01*
X151010463Y-97702338D01*
X151363152Y-97174501D01*
X151487000Y-96551875D01*
X151487000Y-96488125D01*
X151363152Y-95865499D01*
X151010463Y-95337662D01*
X150587000Y-95054713D01*
X150587000Y-94742000D01*
X150531660Y-94463789D01*
X150374067Y-94227933D01*
X150374064Y-94227931D01*
X149390941Y-93244807D01*
X149291505Y-93004154D01*
X149059070Y-92771312D01*
X148755222Y-92645144D01*
X148426221Y-92644857D01*
X148122154Y-92770495D01*
X147889312Y-93002930D01*
X147763144Y-93306778D01*
X147762857Y-93635779D01*
X147888495Y-93939846D01*
X148120930Y-94172688D01*
X148363120Y-94273253D01*
X149133000Y-95043133D01*
X149133000Y-95054713D01*
X148907952Y-95205086D01*
X148805158Y-95045340D01*
X148629049Y-94925010D01*
X148420000Y-94882676D01*
X146839022Y-94882676D01*
X147181461Y-94653866D01*
X147460881Y-94235684D01*
X147559000Y-93742405D01*
X147559000Y-90708443D01*
X147718921Y-90979842D01*
X148121278Y-91282945D01*
X148609000Y-91409000D01*
X150097000Y-91409000D01*
X150097000Y-90193000D01*
X150243000Y-90193000D01*
X150243000Y-91409000D01*
X151731000Y-91409000D01*
X152218722Y-91282945D01*
X152621079Y-90979842D01*
X152876816Y-90545836D01*
X152917667Y-90393422D01*
X152812945Y-90193000D01*
X150243000Y-90193000D01*
X150097000Y-90193000D01*
X150077000Y-90193000D01*
X150077000Y-90047000D01*
X150097000Y-90047000D01*
X150097000Y-90027000D01*
X150243000Y-90027000D01*
X150243000Y-90047000D01*
X152812945Y-90047000D01*
X152917667Y-89846578D01*
X152876816Y-89694164D01*
X152621079Y-89260158D01*
X152461504Y-89139947D01*
X152623866Y-89031461D01*
X152903286Y-88613279D01*
X153001405Y-88120000D01*
X152903286Y-87626721D01*
X152623866Y-87208539D01*
X152491358Y-87120000D01*
X152623866Y-87031461D01*
X152903286Y-86613279D01*
X153001405Y-86120000D01*
X152903286Y-85626721D01*
X152623866Y-85208539D01*
X152491358Y-85120000D01*
X152623866Y-85031461D01*
X152903286Y-84613279D01*
X153001405Y-84120000D01*
X152903286Y-83626721D01*
X152623866Y-83208539D01*
X152491358Y-83120000D01*
X152623866Y-83031461D01*
X152903286Y-82613279D01*
X153001405Y-82120000D01*
X152903286Y-81626721D01*
X152623866Y-81208539D01*
X152491358Y-81120000D01*
X152623866Y-81031461D01*
X152903286Y-80613279D01*
X153001405Y-80120000D01*
X152903286Y-79626721D01*
X152623866Y-79208539D01*
X152491358Y-79120000D01*
X152623866Y-79031461D01*
X152903286Y-78613279D01*
X153001405Y-78120000D01*
X152903286Y-77626721D01*
X152623866Y-77208539D01*
X152491358Y-77120000D01*
X152623866Y-77031461D01*
X152903286Y-76613279D01*
X153001405Y-76120000D01*
X152903286Y-75626721D01*
X152623866Y-75208539D01*
X152491358Y-75120000D01*
X152623866Y-75031461D01*
X152903286Y-74613279D01*
X153001405Y-74120000D01*
X152903286Y-73626721D01*
X152623866Y-73208539D01*
X152491358Y-73120000D01*
X152623866Y-73031461D01*
X152903286Y-72613279D01*
X153001405Y-72120000D01*
X152903286Y-71626721D01*
X152623866Y-71208539D01*
X152491358Y-71120000D01*
X152623866Y-71031461D01*
X152903286Y-70613279D01*
X153001405Y-70120000D01*
X152903286Y-69626721D01*
X152623866Y-69208539D01*
X152491358Y-69120000D01*
X152623866Y-69031461D01*
X152903286Y-68613279D01*
X153001405Y-68120000D01*
X152903286Y-67626721D01*
X152623866Y-67208539D01*
X152491358Y-67120000D01*
X152623866Y-67031461D01*
X152903286Y-66613279D01*
X153001405Y-66120000D01*
X152903286Y-65626721D01*
X152623866Y-65208539D01*
X152461504Y-65100053D01*
X152621079Y-64979842D01*
X152876816Y-64545836D01*
X152917667Y-64393422D01*
X152812945Y-64193000D01*
X150243000Y-64193000D01*
X150243000Y-64213000D01*
X150097000Y-64213000D01*
X150097000Y-64193000D01*
X150077000Y-64193000D01*
X150077000Y-64047000D01*
X150097000Y-64047000D01*
X150097000Y-64027000D01*
X150243000Y-64027000D01*
X150243000Y-64047000D01*
X152812945Y-64047000D01*
X152917667Y-63846578D01*
X152876816Y-63694164D01*
X152621079Y-63260158D01*
X152461504Y-63139947D01*
X152623866Y-63031461D01*
X152903286Y-62613279D01*
X153001405Y-62120000D01*
X152903286Y-61626721D01*
X152623866Y-61208539D01*
X152491358Y-61120000D01*
X152623866Y-61031461D01*
X152903286Y-60613279D01*
X153001405Y-60120000D01*
X152903286Y-59626721D01*
X152623866Y-59208539D01*
X152205684Y-58929119D01*
X151712405Y-58831000D01*
X148627595Y-58831000D01*
X148134316Y-58929119D01*
X147716134Y-59208539D01*
X147436714Y-59626721D01*
X147338595Y-60120000D01*
X147436714Y-60613279D01*
X147716134Y-61031461D01*
X147848642Y-61120000D01*
X147716134Y-61208539D01*
X147436714Y-61626721D01*
X147338595Y-62120000D01*
X147436714Y-62613279D01*
X147716134Y-63031461D01*
X147878496Y-63139947D01*
X147718921Y-63260158D01*
X147463184Y-63694164D01*
X147447000Y-63754546D01*
X147447000Y-63500000D01*
X147438315Y-63453841D01*
X147411035Y-63411447D01*
X147369410Y-63383006D01*
X147320000Y-63373000D01*
X140970000Y-63373000D01*
X140923841Y-63381685D01*
X140881447Y-63408965D01*
X140853006Y-63450590D01*
X140843000Y-63500000D01*
X140843000Y-68580000D01*
X140851685Y-68626159D01*
X140878965Y-68668553D01*
X140920590Y-68696994D01*
X140970000Y-68707000D01*
X147320000Y-68707000D01*
X147366159Y-68698315D01*
X147408553Y-68671035D01*
X147436994Y-68629410D01*
X147439436Y-68617352D01*
X147716134Y-69031461D01*
X147848642Y-69120000D01*
X147716134Y-69208539D01*
X147436714Y-69626721D01*
X147338595Y-70120000D01*
X147436714Y-70613279D01*
X147716134Y-71031461D01*
X147848642Y-71120000D01*
X147716134Y-71208539D01*
X147436714Y-71626721D01*
X147338595Y-72120000D01*
X147436714Y-72613279D01*
X147716134Y-73031461D01*
X147848642Y-73120000D01*
X147716134Y-73208539D01*
X147436714Y-73626721D01*
X147338595Y-74120000D01*
X147436714Y-74613279D01*
X147716134Y-75031461D01*
X147848642Y-75120000D01*
X147716134Y-75208539D01*
X147436714Y-75626721D01*
X147338595Y-76120000D01*
X147436714Y-76613279D01*
X147716134Y-77031461D01*
X147848642Y-77120000D01*
X147716134Y-77208539D01*
X147518045Y-77505000D01*
X147217703Y-77505000D01*
X146977222Y-77405144D01*
X146648221Y-77404857D01*
X146344154Y-77530495D01*
X146111312Y-77762930D01*
X145985144Y-78066778D01*
X145984857Y-78395779D01*
X146110495Y-78699846D01*
X146342930Y-78932688D01*
X146646778Y-79058856D01*
X146975779Y-79059143D01*
X147218143Y-78959000D01*
X147667717Y-78959000D01*
X147716134Y-79031461D01*
X147848642Y-79120000D01*
X147716134Y-79208539D01*
X147436714Y-79626721D01*
X147338595Y-80120000D01*
X147436714Y-80613279D01*
X147716134Y-81031461D01*
X147848642Y-81120000D01*
X147716134Y-81208539D01*
X147436714Y-81626721D01*
X147338595Y-82120000D01*
X147436714Y-82613279D01*
X147716134Y-83031461D01*
X147848642Y-83120000D01*
X147716134Y-83208539D01*
X147436714Y-83626721D01*
X147338595Y-84120000D01*
X147436714Y-84613279D01*
X147716134Y-85031461D01*
X147848642Y-85120000D01*
X147716134Y-85208539D01*
X147436714Y-85626721D01*
X147338595Y-86120000D01*
X147436714Y-86613279D01*
X147716134Y-87031461D01*
X147848642Y-87120000D01*
X147716134Y-87208539D01*
X147436714Y-87626721D01*
X147338595Y-88120000D01*
X147436714Y-88613279D01*
X147716134Y-89031461D01*
X147878496Y-89139947D01*
X147718921Y-89260158D01*
X147463184Y-89694164D01*
X147422333Y-89846578D01*
X147527054Y-90046998D01*
X147393000Y-90046998D01*
X147393000Y-90062725D01*
X147181461Y-89746134D01*
X146763279Y-89466714D01*
X146270000Y-89368595D01*
X145776721Y-89466714D01*
X145358539Y-89746134D01*
X145270000Y-89878642D01*
X145181461Y-89746134D01*
X144763279Y-89466714D01*
X144270000Y-89368595D01*
X143776721Y-89466714D01*
X143358539Y-89746134D01*
X143270000Y-89878642D01*
X143181461Y-89746134D01*
X142763279Y-89466714D01*
X142270000Y-89368595D01*
X141776721Y-89466714D01*
X141358539Y-89746134D01*
X141270000Y-89878642D01*
X141181461Y-89746134D01*
X140763279Y-89466714D01*
X140270000Y-89368595D01*
X139776721Y-89466714D01*
X139358539Y-89746134D01*
X139270000Y-89878642D01*
X139181461Y-89746134D01*
X138763279Y-89466714D01*
X138270000Y-89368595D01*
X137776721Y-89466714D01*
X137358539Y-89746134D01*
X137270000Y-89878642D01*
X137181461Y-89746134D01*
X136763279Y-89466714D01*
X136270000Y-89368595D01*
X135776721Y-89466714D01*
X135358539Y-89746134D01*
X135270000Y-89878642D01*
X135181461Y-89746134D01*
X134763279Y-89466714D01*
X134270000Y-89368595D01*
X133776721Y-89466714D01*
X133358539Y-89746134D01*
X133270000Y-89878642D01*
X133181461Y-89746134D01*
X132763279Y-89466714D01*
X132270000Y-89368595D01*
X131776721Y-89466714D01*
X131358539Y-89746134D01*
X131079119Y-90164316D01*
X130981000Y-90657595D01*
X130910962Y-90657595D01*
X130976816Y-90545836D01*
X131017667Y-90393422D01*
X130912945Y-90193000D01*
X128343000Y-90193000D01*
X128197000Y-90193000D01*
X125627055Y-90193000D01*
X125522333Y-90393422D01*
X123792000Y-90393422D01*
X123792000Y-88120000D01*
X125438595Y-88120000D01*
X125536714Y-88613279D01*
X125816134Y-89031461D01*
X125978496Y-89139947D01*
X125818921Y-89260158D01*
X125563184Y-89694164D01*
X125522333Y-89846578D01*
X125627055Y-90047000D01*
X128197000Y-90047000D01*
X128197000Y-90027000D01*
X128343000Y-90027000D01*
X128343000Y-90047000D01*
X130912945Y-90047000D01*
X131017667Y-89846578D01*
X130976816Y-89694164D01*
X130721079Y-89260158D01*
X130561504Y-89139947D01*
X130723866Y-89031461D01*
X131003286Y-88613279D01*
X131101405Y-88120000D01*
X131003286Y-87626721D01*
X130723866Y-87208539D01*
X130561504Y-87100053D01*
X130721079Y-86979842D01*
X130976816Y-86545836D01*
X131017667Y-86393422D01*
X130912945Y-86193000D01*
X128343000Y-86193000D01*
X128343000Y-86213000D01*
X128197000Y-86213000D01*
X128197000Y-86193000D01*
X125627055Y-86193000D01*
X125522333Y-86393422D01*
X125563184Y-86545836D01*
X125818921Y-86979842D01*
X125978496Y-87100053D01*
X125816134Y-87208539D01*
X125536714Y-87626721D01*
X125438595Y-88120000D01*
X123792000Y-88120000D01*
X123792000Y-68120000D01*
X125438595Y-68120000D01*
X125536714Y-68613279D01*
X125816134Y-69031461D01*
X125948642Y-69120000D01*
X125816134Y-69208539D01*
X125536714Y-69626721D01*
X125438595Y-70120000D01*
X125536714Y-70613279D01*
X125816134Y-71031461D01*
X125948642Y-71120000D01*
X125816134Y-71208539D01*
X125536714Y-71626721D01*
X125438595Y-72120000D01*
X125536714Y-72613279D01*
X125816134Y-73031461D01*
X125948642Y-73120000D01*
X125816134Y-73208539D01*
X125536714Y-73626721D01*
X125438595Y-74120000D01*
X125536714Y-74613279D01*
X125816134Y-75031461D01*
X125948642Y-75120000D01*
X125816134Y-75208539D01*
X125536714Y-75626721D01*
X125438595Y-76120000D01*
X125536714Y-76613279D01*
X125816134Y-77031461D01*
X125948642Y-77120000D01*
X125816134Y-77208539D01*
X125536714Y-77626721D01*
X125438595Y-78120000D01*
X125536714Y-78613279D01*
X125816134Y-79031461D01*
X125948642Y-79120000D01*
X125816134Y-79208539D01*
X125536714Y-79626721D01*
X125438595Y-80120000D01*
X125536714Y-80613279D01*
X125816134Y-81031461D01*
X125948642Y-81120000D01*
X125816134Y-81208539D01*
X125536714Y-81626721D01*
X125438595Y-82120000D01*
X125536714Y-82613279D01*
X125816134Y-83031461D01*
X125948642Y-83120000D01*
X125816134Y-83208539D01*
X125536714Y-83626721D01*
X125438595Y-84120000D01*
X125536714Y-84613279D01*
X125816134Y-85031461D01*
X125978496Y-85139947D01*
X125818921Y-85260158D01*
X125563184Y-85694164D01*
X125522333Y-85846578D01*
X125627055Y-86047000D01*
X128197000Y-86047000D01*
X128197000Y-86027000D01*
X128343000Y-86027000D01*
X128343000Y-86047000D01*
X130912945Y-86047000D01*
X131017667Y-85846578D01*
X130976816Y-85694164D01*
X130721079Y-85260158D01*
X130561504Y-85139947D01*
X130723866Y-85031461D01*
X131003286Y-84613279D01*
X131101405Y-84120000D01*
X131003286Y-83626721D01*
X130723866Y-83208539D01*
X130591358Y-83120000D01*
X130723866Y-83031461D01*
X131003286Y-82613279D01*
X131101405Y-82120000D01*
X131003286Y-81626721D01*
X130723866Y-81208539D01*
X130591358Y-81120000D01*
X130723866Y-81031461D01*
X131003286Y-80613279D01*
X131101405Y-80120000D01*
X131003286Y-79626721D01*
X130723866Y-79208539D01*
X130591358Y-79120000D01*
X130723866Y-79031461D01*
X131003286Y-78613279D01*
X131101405Y-78120000D01*
X131003286Y-77626721D01*
X130723866Y-77208539D01*
X130591358Y-77120000D01*
X130723866Y-77031461D01*
X130847119Y-76847000D01*
X130936866Y-76847000D01*
X131787059Y-77697192D01*
X131886495Y-77937846D01*
X132118930Y-78170688D01*
X132422778Y-78296856D01*
X132751779Y-78297143D01*
X133055846Y-78171505D01*
X133288688Y-77939070D01*
X133385000Y-77707124D01*
X133385000Y-78588297D01*
X133285144Y-78828778D01*
X133284857Y-79157779D01*
X133410495Y-79461846D01*
X133642930Y-79694688D01*
X133946778Y-79820856D01*
X134275779Y-79821143D01*
X134579846Y-79695505D01*
X134812688Y-79463070D01*
X134938856Y-79159222D01*
X134939143Y-78830221D01*
X134839000Y-78587857D01*
X134839000Y-77216005D01*
X134839001Y-77216000D01*
X134783660Y-76937790D01*
X134783660Y-76937789D01*
X134626067Y-76701933D01*
X131791000Y-73866866D01*
X131791000Y-72898000D01*
X131735660Y-72619789D01*
X131578067Y-72383933D01*
X131048584Y-71854450D01*
X131003286Y-71626721D01*
X130723866Y-71208539D01*
X130591358Y-71120000D01*
X130723866Y-71031461D01*
X130814477Y-70895851D01*
X130898778Y-70930856D01*
X131227779Y-70931143D01*
X131531846Y-70805505D01*
X131764688Y-70573070D01*
X131890856Y-70269222D01*
X131891143Y-69940221D01*
X131765505Y-69636154D01*
X131601261Y-69471622D01*
X132442666Y-69471622D01*
X132735416Y-70180132D01*
X133277017Y-70722678D01*
X133985014Y-71016665D01*
X134751622Y-71017334D01*
X135460132Y-70724584D01*
X136002678Y-70182983D01*
X136296665Y-69474986D01*
X136297334Y-68708378D01*
X136004584Y-67999868D01*
X135462983Y-67457322D01*
X134754986Y-67163335D01*
X133988378Y-67162666D01*
X133279868Y-67455416D01*
X132737322Y-67997017D01*
X132443335Y-68705014D01*
X132442666Y-69471622D01*
X131601261Y-69471622D01*
X131533070Y-69403312D01*
X131229222Y-69277144D01*
X130900221Y-69276857D01*
X130797793Y-69319179D01*
X130723866Y-69208539D01*
X130591358Y-69120000D01*
X130723866Y-69031461D01*
X131003286Y-68613279D01*
X131056530Y-68345604D01*
X131578067Y-67824067D01*
X131735660Y-67588211D01*
X131762075Y-67455416D01*
X131791001Y-67310000D01*
X131791000Y-67309995D01*
X131791000Y-58388481D01*
X133484757Y-58388481D01*
X133614966Y-58657506D01*
X134268367Y-58927364D01*
X134975301Y-58926634D01*
X135625034Y-58657506D01*
X135755243Y-58388481D01*
X134620000Y-57253238D01*
X133484757Y-58388481D01*
X131791000Y-58388481D01*
X131791000Y-57164993D01*
X131992338Y-57030463D01*
X132147419Y-56798367D01*
X132842636Y-56798367D01*
X132843366Y-57505301D01*
X133112494Y-58155034D01*
X133381519Y-58285243D01*
X134516762Y-57150000D01*
X134723238Y-57150000D01*
X135858481Y-58285243D01*
X136127506Y-58155034D01*
X136397247Y-57501916D01*
X140462693Y-57501916D01*
X140732655Y-58155274D01*
X141232096Y-58655588D01*
X141884982Y-58926690D01*
X142591916Y-58927307D01*
X143245274Y-58657345D01*
X143745588Y-58157904D01*
X144016690Y-57505018D01*
X144017307Y-56798084D01*
X143772814Y-56206364D01*
X144456070Y-56206364D01*
X144692142Y-56776308D01*
X145138505Y-57227710D01*
X145723635Y-57473936D01*
X145977000Y-57373617D01*
X145977000Y-55953000D01*
X146123000Y-55953000D01*
X146123000Y-57373617D01*
X146376365Y-57473936D01*
X146961495Y-57227710D01*
X147407858Y-56776308D01*
X147643930Y-56206364D01*
X147543467Y-55953000D01*
X146123000Y-55953000D01*
X145977000Y-55953000D01*
X144556533Y-55953000D01*
X144456070Y-56206364D01*
X143772814Y-56206364D01*
X143747345Y-56144726D01*
X143247904Y-55644412D01*
X142595018Y-55373310D01*
X141888084Y-55372693D01*
X141234726Y-55642655D01*
X140734412Y-56142096D01*
X140463310Y-56794982D01*
X140462693Y-57501916D01*
X136397247Y-57501916D01*
X136397364Y-57501633D01*
X136396634Y-56794699D01*
X136127506Y-56144966D01*
X135858481Y-56014757D01*
X134723238Y-57150000D01*
X134516762Y-57150000D01*
X133381519Y-56014757D01*
X133112494Y-56144966D01*
X132842636Y-56798367D01*
X132147419Y-56798367D01*
X132345027Y-56502626D01*
X132462605Y-55911519D01*
X133484757Y-55911519D01*
X134620000Y-57046762D01*
X135755243Y-55911519D01*
X135625034Y-55642494D01*
X134971633Y-55372636D01*
X134264699Y-55373366D01*
X133614966Y-55642494D01*
X133484757Y-55911519D01*
X132462605Y-55911519D01*
X132468875Y-55880000D01*
X132345027Y-55257374D01*
X132124914Y-54927952D01*
X132284660Y-54825158D01*
X132404990Y-54649049D01*
X132447324Y-54440000D01*
X132447324Y-52240000D01*
X132410577Y-52044706D01*
X132295158Y-51865340D01*
X132119049Y-51745010D01*
X131910000Y-51702676D01*
X129710000Y-51702676D01*
X129514706Y-51739423D01*
X129335340Y-51854842D01*
X129215010Y-52030951D01*
X129172676Y-52240000D01*
X129172676Y-54440000D01*
X129209423Y-54635294D01*
X129324842Y-54814660D01*
X129493695Y-54930032D01*
X129274973Y-55257374D01*
X129151125Y-55880000D01*
X129274973Y-56502626D01*
X129627662Y-57030463D01*
X130155499Y-57383152D01*
X130337000Y-57419255D01*
X130337000Y-64970824D01*
X130318722Y-64957055D01*
X129831000Y-64831000D01*
X128343000Y-64831000D01*
X128343000Y-66047000D01*
X128363000Y-66047000D01*
X128363000Y-66193000D01*
X128343000Y-66193000D01*
X128343000Y-66213000D01*
X128197000Y-66213000D01*
X128197000Y-66193000D01*
X125627055Y-66193000D01*
X125522333Y-66393422D01*
X125563184Y-66545836D01*
X125818921Y-66979842D01*
X125978496Y-67100053D01*
X125816134Y-67208539D01*
X125536714Y-67626721D01*
X125438595Y-68120000D01*
X123792000Y-68120000D01*
X123792000Y-65846578D01*
X125522333Y-65846578D01*
X125627055Y-66047000D01*
X128197000Y-66047000D01*
X128197000Y-64831000D01*
X126709000Y-64831000D01*
X126221278Y-64957055D01*
X125818921Y-65260158D01*
X125563184Y-65694164D01*
X125522333Y-65846578D01*
X123792000Y-65846578D01*
X123792000Y-52764293D01*
X123950418Y-51967873D01*
X124367967Y-51342967D01*
X124992872Y-50925418D01*
X125789293Y-50767000D01*
X133410024Y-50767000D01*
X133114412Y-51062096D01*
M02*
