G04 #@! TF.FileFunction,Legend,Top*
%FSLAX46Y46*%
G04 Gerber Fmt 4.6, Leading zero omitted, Abs format (unit mm)*
G04 Created by KiCad (PCBNEW 4.0.6) date 12/04/17 20:40:56*
%MOMM*%
%LPD*%
G01*
G04 APERTURE LIST*
%ADD10C,0.050000*%
%ADD11C,0.150000*%
%ADD12C,0.200000*%
%ADD13C,0.120000*%
G04 APERTURE END LIST*
D10*
D11*
X149833334Y-94452381D02*
X149500000Y-93976190D01*
X149261905Y-94452381D02*
X149261905Y-93452381D01*
X149642858Y-93452381D01*
X149738096Y-93500000D01*
X149785715Y-93547619D01*
X149833334Y-93642857D01*
X149833334Y-93785714D01*
X149785715Y-93880952D01*
X149738096Y-93928571D01*
X149642858Y-93976190D01*
X149261905Y-93976190D01*
X150166667Y-93452381D02*
X150833334Y-94452381D01*
X150833334Y-93452381D02*
X150166667Y-94452381D01*
X126238095Y-93452381D02*
X126809524Y-93452381D01*
X126523809Y-94452381D02*
X126523809Y-93452381D01*
X127047619Y-93452381D02*
X127714286Y-94452381D01*
X127714286Y-93452381D02*
X127047619Y-94452381D01*
X125952381Y-54452381D02*
X126571429Y-54452381D01*
X126238095Y-54833333D01*
X126380953Y-54833333D01*
X126476191Y-54880952D01*
X126523810Y-54928571D01*
X126571429Y-55023810D01*
X126571429Y-55261905D01*
X126523810Y-55357143D01*
X126476191Y-55404762D01*
X126380953Y-55452381D01*
X126095238Y-55452381D01*
X126000000Y-55404762D01*
X125952381Y-55357143D01*
X127000000Y-55357143D02*
X127047619Y-55404762D01*
X127000000Y-55452381D01*
X126952381Y-55404762D01*
X127000000Y-55357143D01*
X127000000Y-55452381D01*
X127380952Y-54452381D02*
X128000000Y-54452381D01*
X127666666Y-54833333D01*
X127809524Y-54833333D01*
X127904762Y-54880952D01*
X127952381Y-54928571D01*
X128000000Y-55023810D01*
X128000000Y-55261905D01*
X127952381Y-55357143D01*
X127904762Y-55404762D01*
X127809524Y-55452381D01*
X127523809Y-55452381D01*
X127428571Y-55404762D01*
X127380952Y-55357143D01*
X149238096Y-54500000D02*
X149142858Y-54452381D01*
X149000001Y-54452381D01*
X148857143Y-54500000D01*
X148761905Y-54595238D01*
X148714286Y-54690476D01*
X148666667Y-54880952D01*
X148666667Y-55023810D01*
X148714286Y-55214286D01*
X148761905Y-55309524D01*
X148857143Y-55404762D01*
X149000001Y-55452381D01*
X149095239Y-55452381D01*
X149238096Y-55404762D01*
X149285715Y-55357143D01*
X149285715Y-55023810D01*
X149095239Y-55023810D01*
X149714286Y-55452381D02*
X149714286Y-54452381D01*
X150285715Y-55452381D01*
X150285715Y-54452381D01*
X150761905Y-55452381D02*
X150761905Y-54452381D01*
X151000000Y-54452381D01*
X151142858Y-54500000D01*
X151238096Y-54595238D01*
X151285715Y-54690476D01*
X151333334Y-54880952D01*
X151333334Y-55023810D01*
X151285715Y-55214286D01*
X151238096Y-55309524D01*
X151142858Y-55404762D01*
X151000000Y-55452381D01*
X150761905Y-55452381D01*
D12*
X150000000Y-90000000D02*
X153000000Y-90000000D01*
X150000000Y-78000000D02*
X153000000Y-78000000D01*
X150000000Y-64000000D02*
X153000000Y-64000000D01*
X128000000Y-90000000D02*
X125000000Y-90000000D01*
X128000000Y-86000000D02*
X125000000Y-86000000D01*
X128000000Y-76000000D02*
X125000000Y-76000000D01*
X128000000Y-72000000D02*
X125000000Y-72000000D01*
X128000000Y-70000000D02*
X125000000Y-70000000D01*
X128000000Y-68000000D02*
X125000000Y-68000000D01*
X128000000Y-66000000D02*
X125000000Y-66000000D01*
D13*
X139430000Y-97270000D02*
X136230000Y-97270000D01*
X136230000Y-95770000D02*
X139430000Y-95770000D01*
X136230000Y-95770000D02*
X136230000Y-97270000D01*
D11*
X134620000Y-52070000D02*
X142240000Y-52070000D01*
X142240000Y-52070000D02*
X142240000Y-57150000D01*
X142240000Y-57150000D02*
X134620000Y-57150000D01*
X134620000Y-57150000D02*
X134620000Y-52070000D01*
D13*
X151190000Y-97850000D02*
X151190000Y-95190000D01*
X148590000Y-97850000D02*
X151190000Y-97850000D01*
X148590000Y-95190000D02*
X151190000Y-95190000D01*
X148590000Y-97850000D02*
X148590000Y-95190000D01*
X147320000Y-97850000D02*
X145990000Y-97850000D01*
X145990000Y-97850000D02*
X145990000Y-96520000D01*
X130870000Y-97850000D02*
X130870000Y-95190000D01*
X128270000Y-97850000D02*
X130870000Y-97850000D01*
X128270000Y-95190000D02*
X130870000Y-95190000D01*
X128270000Y-97850000D02*
X128270000Y-95190000D01*
X127000000Y-97850000D02*
X125670000Y-97850000D01*
X125670000Y-97850000D02*
X125670000Y-96520000D01*
X144720000Y-57210000D02*
X147380000Y-57210000D01*
X144720000Y-54610000D02*
X144720000Y-57210000D01*
X147380000Y-54610000D02*
X147380000Y-57210000D01*
X144720000Y-54610000D02*
X147380000Y-54610000D01*
X144720000Y-53340000D02*
X144720000Y-52010000D01*
X144720000Y-52010000D02*
X146050000Y-52010000D01*
X129480000Y-57210000D02*
X132140000Y-57210000D01*
X129480000Y-54610000D02*
X129480000Y-57210000D01*
X132140000Y-54610000D02*
X132140000Y-57210000D01*
X129480000Y-54610000D02*
X132140000Y-54610000D01*
X129480000Y-53340000D02*
X129480000Y-52010000D01*
X129480000Y-52010000D02*
X130810000Y-52010000D01*
M02*
